<?xml version="1.0" encoding="UTF-8"?>
<svg version="1.1" xmlns="http://www.w3.org/2000/svg" width="1298" height="348">
<path d="M0 0 C9.38927379 -0.09331244 18.7783842 -0.16407189 28.16802311 -0.20724869 C32.52958294 -0.22798747 36.89082198 -0.25604908 41.25219727 -0.30175781 C45.47328714 -0.34571169 49.69407151 -0.36923971 53.91537285 -0.37950897 C55.51348101 -0.38681265 57.11157538 -0.4010704 58.70955086 -0.42292023 C77.13573173 -0.66449519 94.86302568 3.11178151 108.62109375 16.33984375 C120.26191965 29.35692493 125.19006799 44.824785 129.1875 61.5 C129.42557373 62.47614258 129.66364746 63.45228516 129.90893555 64.45800781 C134.58380428 85.08445284 135.46480833 105.81619785 135.40297651 126.89387894 C135.3951938 130.39792723 135.40247554 133.90195623 135.40713501 137.40600586 C135.41253999 143.28210777 135.40554153 149.15809529 135.39111328 155.03417969 C135.37479702 161.75531278 135.38008931 168.4761725 135.3965925 175.197299 C135.4103598 181.04611586 135.4120539 186.89485212 135.40427649 192.74368 C135.3996823 196.20269028 135.3987389 199.66157366 135.40888596 203.12057495 C135.47866639 237.82243624 133.87737325 284.14068531 108.3125 310.78515625 C92.54467992 325.88710555 74.10515318 328.52191454 53.125 328.29296875 C51.57845477 328.28735253 50.0319041 328.28309206 48.48535156 328.28010559 C44.47408518 328.26881579 40.46316051 328.23949186 36.45202637 328.20599365 C32.33525206 328.17494415 28.2184209 328.16152685 24.1015625 328.14648438 C16.06755396 328.11460151 8.03381984 328.06360556 0 328 C-1.125 324.25 -1.125 324.25 0 322 C5.28 322 10.56 322 16 322 C16 217.72 16 113.44 16 6 C10.72 6 5.44 6 0 6 C-1 2 -1 2 0 0 Z M61 6 C61 109.95 61 213.9 61 321 C72.01342529 321.40825549 72.01342529 321.40825549 82 318 C86.33417241 313.01570173 87.12220459 308.33661152 87.13142776 301.90930462 C87.13526891 300.90106504 87.13911005 299.89282546 87.1430676 298.85403317 C87.14220112 297.75346123 87.14133463 296.65288928 87.14044189 295.51896667 C87.14341302 294.344276 87.14638414 293.16958532 87.1494453 291.95929796 C87.15661693 288.70237789 87.15930394 285.44548999 87.16004276 282.18856323 C87.16189618 278.67448518 87.1694449 275.1604185 87.17617798 271.64634705 C87.18974937 263.96453436 87.19578397 256.2827269 87.20018864 248.60090423 C87.20295271 243.80350303 87.20719033 239.00610384 87.21169281 234.20870399 C87.22388322 220.92321366 87.23418344 207.63772493 87.2375679 194.35222912 C87.23778747 193.50224518 87.23800703 192.65226124 87.23823325 191.77652021 C87.23845153 190.92451937 87.23866981 190.07251852 87.2388947 189.19469947 C87.23933817 187.46825993 87.23978473 185.74182039 87.24023438 184.01538086 C87.2404558 183.1590098 87.24067723 182.30263873 87.24090537 181.42031703 C87.24485386 167.54238287 87.26231045 153.6645012 87.2855939 139.78658732 C87.30931166 125.53467191 87.32176992 111.28278284 87.32293582 97.03084737 C87.32385227 89.03034913 87.32959705 81.02991931 87.34775543 73.02943993 C87.36316206 66.21744985 87.36827353 59.40554935 87.36001733 52.59354516 C87.35611299 49.11911963 87.35702975 45.64487448 87.37107468 42.17047119 C87.38374973 38.40081992 87.37794094 34.63163212 87.36749268 30.86198425 C87.37554908 29.76810447 87.38360548 28.67422469 87.39190602 27.54719704 C87.3515516 21.32510342 86.70040847 16.63957308 84 11 C76.78971944 3.96997645 72.28754795 6 61 6 Z " fill="#030765" transform="translate(107,10)"/>
<path d="M0 0 C1.25764785 -0.00526326 2.51529569 -0.01052652 3.81105408 -0.01594928 C5.21211719 -0.01168439 6.61317974 -0.00723673 8.01424176 -0.0026266 C9.50452543 -0.00501525 10.99480791 -0.00827966 12.48508796 -0.0123432 C16.60432712 -0.0210039 20.72347575 -0.01711998 24.84271642 -0.01128747 C29.31504414 -0.00713312 33.78735484 -0.01451003 38.25967848 -0.02043998 C46.1059797 -0.02922427 53.95225481 -0.03050621 61.79855973 -0.02693671 C73.4660756 -0.02164276 85.13356609 -0.02771177 96.8010792 -0.03601964 C118.84837547 -0.05128601 140.89566028 -0.05296202 162.94296073 -0.05049662 C179.96370729 -0.04866625 196.98445007 -0.05041815 214.00519615 -0.05472106 C216.44775113 -0.05532345 218.89030611 -0.05592465 221.33286108 -0.05652466 C225.01323746 -0.05743188 228.69361383 -0.05834054 232.37399021 -0.05925701 C266.60638696 -0.06769052 300.83878228 -0.07201947 335.07117993 -0.06785029 C336.36254392 -0.06769392 337.65390791 -0.06753754 338.98440414 -0.06737643 C345.530032 -0.0665706 352.07565985 -0.06572483 358.6212877 -0.06486312 C359.92134574 -0.06469204 361.22140378 -0.06452095 362.56085752 -0.06434468 C365.18989223 -0.06399802 367.81892693 -0.06364949 370.44796164 -0.06329909 C411.36585141 -0.05794056 452.28371963 -0.06587444 493.20160538 -0.08433264 C539.13879699 -0.10503064 585.07597525 -0.1157796 631.01317179 -0.11175716 C635.90755711 -0.11136179 640.80194243 -0.11100025 645.69632775 -0.11065978 C646.90151185 -0.11056905 648.10669595 -0.11047831 649.34840078 -0.11038483 C667.57241808 -0.10921698 685.79642193 -0.11588138 704.02043587 -0.1264717 C724.73639156 -0.13849761 745.45231757 -0.14011284 766.16827368 -0.12768153 C777.7716512 -0.12103088 789.37495783 -0.12273455 800.97832975 -0.13627005 C808.71905758 -0.14447478 816.45973196 -0.14186915 824.20045539 -0.13029478 C828.61747305 -0.12399864 833.03435174 -0.12253889 837.45136171 -0.13415811 C841.4651248 -0.14461998 845.47862992 -0.14141868 849.49237882 -0.12705358 C850.93969929 -0.12431222 852.38704003 -0.12665832 853.83434151 -0.13456073 C855.79286957 -0.14452939 857.75146953 -0.13432247 859.7099905 -0.12304783 C860.79643647 -0.12306829 861.88288245 -0.12308875 863.00225103 -0.12310984 C867.108682 0.40502786 869.691207 2.15226163 872.73016983 4.876849 C874.59178304 8.60007541 874.59309403 12.17751591 873.91766983 16.251849 C872.12373315 19.12214768 870.93503707 20.74316538 867.91766983 22.251849 C865.96893586 22.34899274 864.01680424 22.38007785 862.06565124 22.38180083 C860.17985531 22.38709346 860.17985531 22.38709346 858.25596249 22.39249301 C856.84501984 22.39137168 855.43407727 22.39015837 854.02313477 22.38886338 C852.53036934 22.39111797 851.03760451 22.39380885 849.54484057 22.39689922 C845.40940265 22.40416383 841.27398282 22.40512848 837.13853937 22.405122 C832.65208902 22.40618802 828.16564683 22.41297435 823.67920095 22.4190287 C814.76590145 22.43012382 805.85260591 22.43575777 796.93930072 22.43973758 C786.26924389 22.44473906 775.59919474 22.45546532 764.92914243 22.46621931 C739.13635637 22.49187182 713.34356732 22.50688855 687.55077216 22.51972978 C679.01083246 22.52398221 670.47089299 22.52854787 661.93095356 22.5333131 C616.55623112 22.55856967 571.18150833 22.58062521 525.8067804 22.59304124 C515.28986983 22.59596273 504.77295928 22.59893022 494.25604874 22.60194665 C492.94941171 22.60231756 491.64277468 22.60268847 490.29654259 22.60307062 C447.91274379 22.61523168 405.52898646 22.64618402 363.14520715 22.68786818 C319.59843395 22.73061825 276.05168267 22.75727743 232.50488791 22.76251596 C226.35936266 22.76325645 220.21383744 22.76416714 214.06831223 22.76517373 C212.25397353 22.76545966 212.25397353 22.76545966 210.40298153 22.76575135 C190.90565203 22.7692704 171.40837434 22.78959341 151.91106389 22.81597037 C132.32772233 22.84206506 112.74444085 22.84986362 93.16108438 22.83886908 C81.515661 22.83287547 69.87044088 22.84089188 58.22504811 22.86869992 C50.45495514 22.88588671 42.68500156 22.88505833 34.91490577 22.86933223 C30.48182339 22.86087995 26.04913027 22.86047994 21.61608317 22.88194369 C17.58648188 22.90129817 13.55758335 22.89781609 9.52800167 22.8757902 C8.07611554 22.87191264 6.62417709 22.87649329 5.17235216 22.89037722 C-6.98008003 22.9991016 -6.98008003 22.9991016 -10.92311686 19.85360283 C-13.68141017 16.52998484 -14.11803404 14.66185517 -14.32061142 10.470599 C-13.93679208 6.89667469 -12.44992742 4.87540271 -10.08233017 2.251849 C-6.72629097 0.07505506 -3.95251984 0.00130707 0 0 Z " fill="#B26F0A" transform="translate(415.08233016729355,315.7481510043144)"/>
<path d="M0 0 C1.49603198 -0.0046094 2.99205854 -0.01141097 4.48807177 -0.02020609 C8.61410592 -0.03806759 12.7395447 -0.02466325 16.86555507 -0.00631597 C21.34855439 0.0081367 25.83147371 -0.00634999 30.31447023 -0.01720095 C38.17642412 -0.03220473 46.03819946 -0.02855036 53.90014935 -0.01278305 C65.59086067 0.01059863 77.281437 0.00544748 88.97216033 -0.00549195 C109.84881626 -0.02410039 130.72538701 -0.01434795 151.602036 0.00698569 C169.87061124 0.02552289 188.13915784 0.03396602 206.4077425 0.0324173 C208.22353604 0.03227978 208.22353604 0.03227978 210.07601227 0.03213949 C214.98960013 0.03174635 219.90318798 0.03129674 224.81677583 0.0307681 C270.93424136 0.02589414 317.05165605 0.04857859 363.16910577 0.08472433 C404.16788248 0.11672097 445.16661575 0.1287678 486.16540432 0.12264252 C488.79796066 0.12225567 491.430517 0.12186922 494.06307334 0.12148315 C495.36454125 0.1212918 496.66600915 0.12110046 498.00691548 0.12090331 C504.55793215 0.11994902 511.10894883 0.11903464 517.65996552 0.11816406 C518.95229879 0.11799027 520.24463207 0.11781647 521.57612696 0.11763741 C555.80571212 0.11328517 590.03529257 0.12329022 624.2648744 0.13800192 C625.48204988 0.13852206 626.69922537 0.1390422 627.95328496 0.13957811 C629.77576797 0.14035712 629.77576797 0.14035712 631.63506882 0.14115188 C633.45427376 0.14192849 633.45427376 0.14192849 635.31023032 0.14272078 C637.75276572 0.14376888 640.19530112 0.14482909 642.63783651 0.1459015 C659.68721025 0.15329096 676.73657734 0.1553687 693.78595248 0.1539075 C715.75334228 0.15206421 737.72069112 0.16008627 759.6880675 0.18554896 C771.31366746 0.19874289 782.939202 0.20370807 794.56480785 0.19691042 C802.32028745 0.19321184 810.0757071 0.2003535 817.83117067 0.21650281 C822.25657028 0.22541765 826.68183483 0.22951829 831.10723747 0.22057563 C835.12859343 0.21255303 839.14968377 0.21819051 843.17101052 0.23499252 C844.62106899 0.23861697 846.07115076 0.23715993 847.52119684 0.23015337 C849.48341671 0.2213985 851.44569585 0.23280081 853.40789562 0.24527025 C855.0406369 0.24624639 855.0406369 0.24624639 856.70636285 0.24724224 C860.64730122 0.75526027 863.47967671 2.14964927 865.93859768 5.31111908 C866.97815359 8.80780714 867.31131319 12.05364626 866.62609768 15.62361908 C864.65580222 19.14741674 862.52403113 21.32430793 858.62609768 22.62361908 C856.64220893 22.71783006 854.65524065 22.75106916 852.66911668 22.75242025 C850.78640018 22.75732854 850.78640018 22.75732854 848.86564901 22.76233599 C847.46222155 22.76092578 846.05879418 22.75942375 844.6553669 22.75784016 C843.16655233 22.75979218 841.67773829 22.76218067 840.18892506 22.76496813 C836.06911779 22.77139001 831.94932997 22.77152801 827.82951865 22.77069072 C823.35827555 22.77085979 818.88703951 22.77676105 814.41579992 22.78193158 C805.53485396 22.79127401 796.65391298 22.79518238 787.77296272 22.79745055 C777.14082522 22.8004083 766.50869437 22.80910312 755.87656035 22.81786483 C730.17679221 22.83872646 704.47702291 22.84918124 678.77724828 22.85799443 C666.62615885 22.86219799 654.47506992 22.86742033 642.3239809 22.87267896 C600.75149879 22.89056953 559.17901653 22.90556729 517.60653114 22.91299915 C514.99578137 22.91347391 512.38503159 22.9139498 509.77428182 22.91442681 C507.83218766 22.91478138 507.83218766 22.91478138 505.85085927 22.91514311 C499.29083131 22.91634434 492.73080336 22.91755978 486.17077541 22.9187851 C484.21797099 22.91914532 484.21797099 22.91914532 482.22571597 22.91951282 C439.99411254 22.9274098 397.76253715 22.95084967 355.53094596 22.98334104 C310.90908114 23.0176089 266.28723275 23.03734741 221.66535455 23.04064339 C216.77065487 23.04106095 211.8759552 23.04154052 206.98125553 23.04206657 C205.77599235 23.04218977 204.57072917 23.04231296 203.32894286 23.04243988 C183.90141474 23.04477557 164.4739191 23.06045594 145.04640256 23.08090842 C125.53376096 23.10112528 106.02115854 23.10666337 86.50850841 23.09713779 C74.90532221 23.09190685 63.30226609 23.09787519 51.69909851 23.11967246 C43.95719193 23.13312143 36.21537546 23.13215613 28.4734681 23.1192705 C24.05654418 23.11233437 19.63986998 23.11183799 15.22296777 23.12883059 C11.20807982 23.14415141 7.19364401 23.1412026 3.17876999 23.12342031 C1.73218279 23.12025955 0.28556171 23.12386424 -1.16098676 23.13491205 C-14.5537807 23.23056858 -14.5537807 23.23056858 -19.37390232 18.62361908 C-21.36167794 15.77183872 -21.65955221 13.61986882 -21.37390232 10.18611908 C-21.33265232 9.44490814 -21.29140232 8.7036972 -21.24890232 7.94002533 C-17.71093434 -1.42611312 -8.37954521 -0.07681968 0 0 Z " fill="#B26D07" transform="translate(422.3739023208618,9.376380920410156)"/>
<path d="M0 0 C4.09010259 3.05092343 7.58328441 6.13308197 10.5234375 10.3515625 C15.30870422 9.0199481 18.60730106 7.07304842 22.5234375 4.0390625 C23.565 3.23984375 24.6065625 2.440625 25.6796875 1.6171875 C27.85015306 -0.11202956 29.94973312 -1.86999586 32.0234375 -3.7109375 C34.5234375 -5.6484375 34.5234375 -5.6484375 38.5234375 -5.6484375 C38.59347672 10.59770465 38.64640064 26.84379793 38.67887402 43.09005451 C38.69435183 50.63324845 38.7154587 58.17634865 38.74975586 65.71948242 C38.77963037 72.29304811 38.79900585 78.86654593 38.80570298 85.44017762 C38.80961859 88.92183119 38.81883947 92.40329056 38.84062767 95.88488197 C38.86473687 99.76875104 38.86540875 103.65242903 38.86401367 107.53637695 C38.8747995 108.69443344 38.88558533 109.85248993 38.896698 111.04563904 C38.89257401 112.10153229 38.88845001 113.15742554 38.88420105 114.24531555 C38.88696643 115.16434316 38.88973181 116.08337076 38.89258099 117.03024769 C38.45673945 119.77098523 37.65680752 120.64645809 35.5234375 122.3515625 C34.0384375 121.8565625 34.0384375 121.8565625 32.5234375 121.3515625 C30.96804417 112.74001118 29.46054455 104.12583841 28.12890625 95.4765625 C22.33085404 47.15676835 22.33085404 47.15676835 -1.4765625 6.3515625 C-6.49255364 2.81756874 -11.53256077 2.53072417 -17.4765625 3.3515625 C-22.86457072 5.00541058 -25.79171356 8.40731951 -28.4765625 13.23828125 C-36.18512875 29.52864977 -30.00703678 49.30861395 -24.45703125 65.328125 C-19.78771623 78.29288082 -14.3730644 90.90314989 -8.4765625 103.3515625 C-7.99123047 104.37717285 -7.50589844 105.4027832 -7.00585938 106.45947266 C-1.47941329 118.09274438 4.14773572 129.67141482 9.96875 141.16015625 C48.91098423 218.0625698 48.91098423 218.0625698 49.0234375 260.5390625 C49.02980225 261.80282715 49.03616699 263.0665918 49.04272461 264.36865234 C48.76943868 284.44922738 42.85529544 301.22777173 29.2734375 316.1015625 C18.88249464 325.92572666 6.15896076 330.06535227 -7.91796875 329.6953125 C-21.67679219 328.36624942 -30.43565764 322.23777695 -39.26171875 312.05078125 C-40.4765625 310.3515625 -40.4765625 310.3515625 -40.4765625 308.3515625 C-44.16842358 310.42372609 -47.1826706 312.73103557 -50.2890625 315.6015625 C-51.15273438 316.39046875 -52.01640625 317.179375 -52.90625 317.9921875 C-53.75445312 318.77078125 -54.60265625 319.549375 -55.4765625 320.3515625 C-56.95008619 321.69112949 -58.42869241 323.02514345 -59.9140625 324.3515625 C-60.84025391 325.186875 -60.84025391 325.186875 -61.78515625 326.0390625 C-63.4765625 327.3515625 -63.4765625 327.3515625 -66.4765625 328.3515625 C-68.75722328 324.93057133 -68.72431765 323.73179545 -68.71707153 319.71382141 C-68.71982086 318.54013 -68.72257019 317.3664386 -68.72540283 316.15718079 C-68.71821228 314.86821396 -68.71102173 313.57924713 -68.70361328 312.2512207 C-68.70304919 310.88133757 -68.70336569 309.51145383 -68.70449829 308.14157104 C-68.70507287 304.42074015 -68.69330154 300.70003782 -68.67935038 296.97923684 C-68.66686059 293.09148574 -68.6656739 289.20373181 -68.66329956 285.31596375 C-68.65707963 277.95305558 -68.64066189 270.5902067 -68.62060058 263.22732466 C-68.59825752 254.84531892 -68.58725216 246.46331036 -68.57720971 238.08128226 C-68.5562961 220.83800803 -68.52111018 203.59479153 -68.4765625 186.3515625 C-66.8265625 186.0215625 -65.1765625 185.6915625 -63.4765625 185.3515625 C-61.28623004 188.63706119 -61.21909612 189.66910008 -61.16796875 193.48828125 C-61.14516846 194.52774902 -61.12236816 195.5672168 -61.09887695 196.63818359 C-61.07913818 197.76047363 -61.05939941 198.88276367 -61.0390625 200.0390625 C-59.98084874 235.74206004 -55.48282594 285.52767158 -29.3515625 312.6796875 C-25.25911573 316.32878587 -20.9341722 318.14165443 -15.4765625 318.3515625 C-9.0894413 317.19961794 -4.65514878 315.51334555 -0.4765625 310.3515625 C0.50957031 309.19333984 0.50957031 309.19333984 1.515625 308.01171875 C10.5052966 296.10127836 8.75960261 277.64552421 7.22607422 263.63476562 C4.08854058 242.13231434 -5.50137615 221.91259438 -14.4765625 202.3515625 C-14.76893799 201.71331543 -15.06131348 201.07506836 -15.36254883 200.41748047 C-22.8138475 184.16551346 -30.50966446 168.07396788 -38.7890625 152.2265625 C-58.09500478 115.25439892 -76.60189966 76.93935315 -65.4765625 34.3515625 C-60.35342578 18.56430786 -50.33987111 5.05459744 -35.4765625 -2.6484375 C-23.6197551 -7.92021421 -10.78855324 -7.1810244 0 0 Z " fill="#080C68" transform="translate(337.4765625,11.6484375)"/>
<path d="M0 0 C0.70706085 0.00359528 1.4141217 0.00719055 2.14260864 0.01089478 C3.25473473 0.01067574 3.25473473 0.01067574 4.389328 0.01045227 C6.85130696 0.01115152 9.31321119 0.01894442 11.775177 0.02676392 C13.47768614 0.02862806 15.18019582 0.03005198 16.88270569 0.03105164 C21.37245148 0.03487714 25.86216513 0.0447077 30.35189819 0.05575562 C34.92983566 0.06596903 39.50777831 0.07054911 44.08572388 0.07559204 C53.07467032 0.08632994 62.06359287 0.10340675 71.05252075 0.12442017 C71.43470842 1.78056674 71.76647177 3.44899041 72.05252075 5.12442017 C71.72252075 5.45442017 71.39252075 5.78442017 71.05252075 6.12442017 C65.77252075 6.12442017 60.49252075 6.12442017 55.05252075 6.12442017 C55.05252075 110.40442017 55.05252075 214.68442017 55.05252075 322.12442017 C59.67252075 322.12442017 64.29252075 322.12442017 69.05252075 322.12442017 C69.38252075 323.77442017 69.71252075 325.42442017 70.05252075 327.12442017 C68.39086868 328.78607224 66.38736045 328.24401742 64.16850281 328.24884033 C63.47079269 328.24524506 62.77308258 328.24164978 62.05422974 328.23794556 C60.95673401 328.2381646 60.95673401 328.2381646 59.83706665 328.23838806 C57.40755292 328.23768883 54.97811492 328.22989601 52.5486145 328.22207642 C50.86852561 328.22021227 49.18843618 328.21878835 47.50834656 328.2177887 C43.07778432 328.21396324 38.64725465 328.20413272 34.21670532 328.19308472 C29.69909099 328.18287119 25.18147142 328.1782912 20.66384888 328.17324829 C11.79339182 328.16251048 2.92295899 328.14543373 -5.94747925 328.12442017 C-6.32966692 326.46827359 -6.66143027 324.79984992 -6.94747925 323.12442017 C-6.61747925 322.79442017 -6.28747925 322.46442017 -5.94747925 322.12442017 C-0.66747925 322.12442017 4.61252075 322.12442017 10.05252075 322.12442017 C10.05252075 217.84442017 10.05252075 113.56442017 10.05252075 6.12442017 C5.10252075 6.12442017 0.15252075 6.12442017 -4.94747925 6.12442017 C-5.27747925 4.47442017 -5.60747925 2.82442017 -5.94747925 1.12442017 C-4.27411929 -0.54893979 -2.23360016 0.00479121 0 0 Z " fill="#010564" transform="translate(16.947479248046875,9.875579833984375)"/>
<path d="M0 0 C4.14577275 -0.05863894 8.29143705 -0.09380984 12.4375 -0.125 C14.18450195 -0.15013672 14.18450195 -0.15013672 15.96679688 -0.17578125 C27.15469831 -0.23881168 35.33374017 0.46865111 43.625 8.5625 C54.68254897 22.67776348 53.18688088 45.12337571 53.18530273 62.00634766 C53.18747856 64.5994537 53.20566958 67.19212557 53.22460938 69.78515625 C53.36014709 109.55532349 53.36014709 109.55532349 42.64453125 122.4140625 C36.7828611 128.06688454 30.70761514 129.12994924 22.828125 129.09765625 C21.8044986 129.09553383 21.8044986 129.09553383 20.76019287 129.09336853 C18.59008316 129.08779084 16.4200783 129.07524254 14.25 129.0625 C12.77474108 129.05748211 11.29948053 129.05291971 9.82421875 129.04882812 C6.21611202 129.03782875 2.60806625 129.02057953 -1 129 C-1 128.01 -1 127.02 -1 126 C0.98 126 2.96 126 5 126 C5 85.41 5 44.82 5 3 C3.02 3 1.04 3 -1 3 C-0.67 2.01 -0.34 1.02 0 0 Z M24 3 C24 43.59 24 84.18 24 126 C27.465 125.505 27.465 125.505 31 125 C33.13118448 121.80322328 33.25064671 121.00524947 33.25396729 117.33827209 C33.25960693 116.38071518 33.26524658 115.42315826 33.27105713 114.43658447 C33.26700867 113.38767029 33.26296021 112.3387561 33.25878906 111.25805664 C33.26404602 109.59917671 33.26404602 109.59917671 33.26940918 107.90678406 C33.27823103 104.2411781 33.27237523 100.57576426 33.265625 96.91015625 C33.26697161 94.36811791 33.26891211 91.82607982 33.27142334 89.28404236 C33.2743753 83.95178543 33.27026511 78.61959767 33.26074219 73.28735352 C33.24986322 67.12468938 33.25337919 60.96215763 33.264395 54.79949671 C33.27456923 48.870134 33.27348614 42.94081238 33.26763153 37.01144218 C33.26629555 34.48881448 33.26794093 31.96618342 33.27259064 29.44355965 C33.27765996 25.91939424 33.26993935 22.39548424 33.25878906 18.87133789 C33.26283752 17.82444794 33.26688599 16.77755798 33.27105713 15.69894409 C33.26259766 14.25837898 33.26259766 14.25837898 33.25396729 12.78871155 C33.25321323 11.95561997 33.25245918 11.1225284 33.25168228 10.26419163 C32.95247193 7.57242659 32.71577646 6.12803108 31 4 C28.69 3.67 26.38 3.34 24 3 Z " fill="#B26F09" transform="translate(503,39)"/>
<path d="M0 0 C4.57149757 -0.07457894 9.14263509 -0.12880276 13.71459961 -0.16479492 C15.2673968 -0.17981105 16.82015209 -0.20023028 18.37280273 -0.22631836 C20.61452624 -0.26302073 22.85568539 -0.27979787 25.09765625 -0.29296875 C25.78336197 -0.30845261 26.46906769 -0.32393646 27.17555237 -0.33988953 C34.42889858 -0.34237918 40.01609019 2.31935808 45.359375 7.12109375 C53.15845193 16.05289376 53.66766348 26.64760096 53.17480469 37.91015625 C52.46055925 46.44917992 48.37055511 53.41035165 42 59 C38.5625 61 38.5625 61 36 62 C37.90914424 63.27276283 39.84497749 64.5069865 41.8125 65.6875 C47.94570281 70.13707851 51.45227456 74.48939977 53 82 C53.30786955 85.14401389 53.37058052 88.27603264 53.4140625 91.43359375 C53.43342865 92.31153091 53.4527948 93.18946808 53.4727478 94.0940094 C53.53212738 96.8750767 53.57876117 99.65618633 53.625 102.4375 C53.66321816 104.33269951 53.70227208 106.22788236 53.7421875 108.12304688 C53.83779429 112.74856129 53.92197755 117.37415692 54 122 C54.99 121.67 55.98 121.34 57 121 C58.03740882 117.74625076 58.03740882 117.74625076 58.6875 113.9375 C58.93886719 112.64714844 59.19023438 111.35679687 59.44921875 110.02734375 C59.63097656 109.02832031 59.81273437 108.02929688 60 107 C61.32 107 62.64 107 64 107 C64.4574872 114.16729944 63.22561191 120.31785231 58.5625 125.9375 C53.86296058 129.72005612 50.44384038 130.45332072 44.4765625 130.3125 C40.74526051 129.84167325 38.70497877 128.56972984 36 126 C33.31148332 120.2903069 33.66835163 114.28859019 33.62109375 108.109375 C33.60409927 106.9684137 33.5871048 105.82745239 33.56959534 104.6519165 C33.51658712 101.0180001 33.47620662 97.38409467 33.4375 93.75 C33.3935877 90.10167952 33.34693844 86.45344771 33.29469299 82.80523682 C33.26270535 80.53719762 33.23582486 78.26907969 33.21446228 76.00091553 C33.20097244 74.97935364 33.1874826 73.95779175 33.17358398 72.90527344 C33.16407211 72.00403748 33.15456024 71.10280151 33.14476013 70.17425537 C33.13766044 67.9529817 33.13766044 67.9529817 32 66 C29.36 65.34 26.72 64.68 24 64 C24 84.46 24 104.92 24 126 C25.98 126 27.96 126 30 126 C29.67 126.99 29.34 127.98 29 129 C19.43 129 9.86 129 0 129 C0 128.01 0 127.02 0 126 C1.98 126 3.96 126 6 126 C6 85.41 6 44.82 6 3 C4.02 3 2.04 3 0 3 C0 2.01 0 1.02 0 0 Z M24 3 C24 22.14 24 41.28 24 61 C29.54337638 61.44867695 29.54337638 61.44867695 32.34364319 59.82337952 C34.54118735 57.40424073 34.50112887 56.06866481 34.50170898 52.82592773 C34.51108994 51.77150986 34.52047089 50.71709198 34.53013611 49.63072205 C34.51890213 48.49316971 34.50766815 47.35561737 34.49609375 46.18359375 C34.49754898 45.01619156 34.49900421 43.84878937 34.50050354 42.64601135 C34.4988427 40.17714951 34.48726098 37.70827751 34.46655273 35.23950195 C34.4375874 31.44893704 34.44594294 27.65976863 34.45898438 23.86914062 C34.45274771 21.4739515 34.44435734 19.07876681 34.43359375 16.68359375 C34.43799721 14.9742289 34.43799721 14.9742289 34.44248962 13.23033142 C34.42980545 12.1790657 34.41712128 11.12779999 34.40405273 10.04467773 C34.39864975 9.11662827 34.39324677 8.1885788 34.38768005 7.23240662 C34.25974564 6.49571243 34.13181122 5.75901825 34 5 C30.63019987 2.35284977 30.63019987 2.35284977 24 3 Z " fill="#B3710D" transform="translate(692,179)"/>
<path d="M0 0 C4.12589075 -0.07477218 8.25151308 -0.12889223 12.37792969 -0.16479492 C13.77839031 -0.17977914 15.17880483 -0.20017379 16.57910156 -0.22631836 C27.58705825 -0.4265344 35.89026359 0.07613364 44.24609375 7.94140625 C55.60812577 21.27724339 53.46883865 44.36619628 53.39111328 60.51513672 C53.37503676 64.490909 53.39102088 68.46566489 53.41015625 72.44140625 C53.44146977 110.68885116 53.44146977 110.68885116 41.640625 123.5625 C35.97900088 128.52316114 28.61049259 129.13064152 21.38671875 129.09765625 C20.13955078 129.09443359 18.89238281 129.09121094 17.60742188 129.08789062 C16.31384766 129.07951172 15.02027344 129.07113281 13.6875 129.0625 C11.71813477 129.05573242 11.71813477 129.05573242 9.70898438 129.04882812 C6.4726099 129.03705949 3.23632822 129.0206176 0 129 C0 128.01 0 127.02 0 126 C1.98 126 3.96 126 6 126 C6 85.41 6 44.82 6 3 C4.02 3 2.04 3 0 3 C0 2.01 0 1.02 0 0 Z M24 3 C24 43.59 24 84.18 24 126 C30.63333333 125.76666667 30.63333333 125.76666667 33 123 C33.97424275 120.09921868 34.12734142 117.4218902 34.13371277 114.37660217 C34.13797775 113.45277237 34.14224274 112.52894257 34.14663696 111.57711792 C34.14618378 110.57077301 34.14573059 109.5644281 34.14526367 108.52758789 C34.14862228 107.46214249 34.1519809 106.39669708 34.15544128 105.29896545 C34.16494794 101.77351723 34.16689418 98.2481165 34.16796875 94.72265625 C34.17118124 92.27412394 34.17454531 89.82559183 34.17805481 87.37705994 C34.18404516 82.24331212 34.18589478 77.10958114 34.18530273 71.97583008 C34.18520105 65.39386407 34.19885999 58.8120058 34.21607494 52.23006535 C34.22718612 47.1729228 34.22922222 42.11580638 34.22869301 37.05865288 C34.2298742 34.63174505 34.23430372 32.20483658 34.24202538 29.77794075 C34.25180843 26.38581893 34.24895388 22.99393214 34.24291992 19.60180664 C34.25134918 18.09532562 34.25134918 18.09532562 34.25994873 16.55841064 C34.29835476 10.0279263 34.29835476 10.0279263 32 4 C29.47825081 2.5527864 29.47825081 2.5527864 24 3 Z " fill="#B3700B" transform="translate(410,179)"/>
<path d="M0 0 C4.08319218 -0.0885085 8.16613163 -0.14089063 12.25 -0.1875 C13.38953125 -0.21263672 14.5290625 -0.23777344 15.703125 -0.26367188 C24.21343993 -0.33620297 34.29094056 -0.1549798 41.4375 5.125 C52.38676252 17.40953844 53.14422963 33.7612702 53.203125 49.46875 C53.20882507 50.66246216 53.21452515 51.85617432 53.22039795 53.08605957 C53.2298158 55.60749434 53.2363691 58.12894123 53.24023438 60.65039062 C53.24989818 64.45986107 53.28093631 68.26878185 53.3125 72.078125 C53.48231147 111.18074062 53.48231147 111.18074062 42.75 122.9375 C37.30573068 128.42219706 30.81397768 129.24917787 23.4375 129.29296875 C20.62430738 129.28437697 17.81269971 129.23823965 15 129.1875 C13.54298257 129.17242741 12.08595007 129.15874355 10.62890625 129.14648438 C7.08562075 129.11367903 3.54290829 129.06203907 0 129 C0 128.01 0 127.02 0 126 C1.98 126 3.96 126 6 126 C6 85.41 6 44.82 6 3 C4.02 3 2.04 3 0 3 C0 2.01 0 1.02 0 0 Z M24 3 C24 43.59 24 84.18 24 126 C26.64 125.67 29.28 125.34 32 125 C34.06916145 119.03609367 34.28482274 113.65229912 34.25878906 107.37060547 C34.2622937 106.32422913 34.26579834 105.27785278 34.26940918 104.19976807 C34.2781818 100.75550624 34.2723939 97.31145126 34.265625 93.8671875 C34.26697273 91.46778321 34.26891416 89.06837919 34.27142334 86.66897583 C34.27436838 81.647292 34.27009608 76.62567944 34.26074219 71.60400391 C34.24933579 65.16672038 34.25591867 58.72960342 34.26788712 52.29232597 C34.27511191 47.34069563 34.27281513 42.38910483 34.26763153 37.4374733 C34.26629739 35.0635997 34.2679345 32.68972252 34.27259064 30.31585312 C34.2776673 27.00067367 34.26992987 23.68576476 34.25878906 20.37060547 C34.26283752 19.3896994 34.26688599 18.40879333 34.27105713 17.39816284 C34.29692362 10.94221749 34.29692362 10.94221749 32 5 C28.90754997 2.53774984 28.90754997 2.53774984 24 3 Z " fill="#B26E08" transform="translate(788,39)"/>
<path d="M0 0 C12.65006765 11.4452993 14.61315552 26.967458 15.52923584 43.24841309 C15.81767185 49.65356758 15.81090915 56.06685819 15.81030273 62.47729492 C15.8124823 65.04167475 15.83069822 67.60561792 15.84960938 70.16992188 C15.87913789 78.73590888 15.60882546 87.19405658 14.73046875 95.71875 C14.61230049 96.87469917 14.61230049 96.87469917 14.491745 98.05400085 C13.14029682 109.89082001 9.50056199 119.3759151 0.30859375 127.17578125 C-3.81184301 130.11075592 -8.54224625 129.80753562 -13.375 129.375 C-19.23861748 127.49864241 -22.99176106 123.37165702 -26.375 118.375 C-32.48937145 105.521569 -33.52803384 91.65873344 -33.54296875 77.6484375 C-33.54629715 76.5425528 -33.54962555 75.43666809 -33.55305481 74.29727173 C-33.55809532 71.96592623 -33.56046403 69.63457359 -33.56030273 67.30322266 C-33.56248055 63.78145095 -33.58064364 60.25999733 -33.59960938 56.73828125 C-33.70112715 16.78679361 -33.70112715 16.78679361 -22.9921875 4 C-16.63302784 -2.38988024 -8.28243298 -3.9878381 0 0 Z M-11.375 2.375 C-14.88033005 7.91722279 -14.80183129 12.70392618 -14.76318359 19.04272461 C-14.76844055 20.10524948 -14.77369751 21.16777435 -14.77911377 22.26249695 C-14.79229511 25.76759634 -14.78358132 29.2722399 -14.7734375 32.77734375 C-14.77545891 35.218227 -14.77837091 37.65910966 -14.78213501 40.09999084 C-14.78655598 45.21344762 -14.78013497 50.32674707 -14.76611328 55.44018555 C-14.74903085 61.98835002 -14.7588584 68.53614533 -14.77683067 75.08429623 C-14.78768223 80.12438222 -14.78421565 85.16438103 -14.7764473 90.20446968 C-14.77444863 92.61855679 -14.77689284 95.03265186 -14.78388596 97.44672966 C-14.79152173 100.82399268 -14.77986524 104.20066195 -14.76318359 107.57788086 C-14.76925629 108.5718689 -14.77532898 109.56585693 -14.78158569 110.58996582 C-14.72989465 116.25133505 -14.22697603 120.42345867 -11.375 125.375 C-10.385 125.705 -9.395 126.035 -8.375 126.375 C-6.11881351 125.32074588 -6.11881351 125.32074588 -4.375 123.375 C-3.77811805 121.14259551 -3.77811805 121.14259551 -3.87379456 118.59938049 C-3.86396042 117.61658112 -3.85412628 116.63378174 -3.84399414 115.62120056 C-3.85366211 114.54423416 -3.86333008 113.46726776 -3.87329102 112.35766602 C-3.86788803 111.22248535 -3.86248505 110.08730469 -3.85691833 108.91772461 C-3.84438189 105.15452225 -3.8609567 101.39207765 -3.87890625 97.62890625 C-3.87875137 95.01960713 -3.87726417 92.41030778 -3.87449646 89.80101013 C-3.87179355 84.32745472 -3.88527526 78.85411849 -3.90844727 73.38061523 C-3.93504446 67.05429155 -3.93680875 60.72833467 -3.9250589 54.40197426 C-3.91427459 48.31559164 -3.92057477 42.22936285 -3.93461418 36.1429882 C-3.93913679 33.55337854 -3.93945845 30.96375808 -3.93554878 28.37414742 C-3.93264422 24.75644818 -3.94910899 21.13935168 -3.97094727 17.52172852 C-3.96644562 16.44678635 -3.96194397 15.37184418 -3.95730591 14.264328 C-3.96721054 13.2787088 -3.97711517 12.2930896 -3.98731995 11.27760315 C-3.98974984 10.42238854 -3.99217974 9.56717394 -3.99468327 8.68604374 C-4.46946799 5.80095306 -5.29280885 4.41836181 -7.375 2.375 C-8.695 2.375 -10.015 2.375 -11.375 2.375 Z " fill="#B4720F" transform="translate(887.375,179.625)"/>
<path d="M0 0 C12.59697247 11.39726081 14.73740255 27.13962188 15.625 43.375 C15.80210659 49.63051036 15.81082863 55.88766095 15.81030273 62.14526367 C15.81248234 65.03905104 15.83067689 67.93245191 15.84960938 70.82617188 C15.97005042 109.96093949 15.97005042 109.96093949 5.625 122.375 C1.16245788 126.70448467 -2.20063937 129.47410341 -8.625 129.6875 C-15.00018333 129.5841745 -19.04355555 126.96224668 -23.5 122.5625 C-35.32245841 107.70539986 -33.70610499 83.95961304 -33.63574219 66.11181641 C-33.62501773 62.88034304 -33.63569787 59.64942539 -33.6484375 56.41796875 C-33.67779002 14.73639262 -33.67779002 14.73639262 -20.375 1.375 C-14.50804934 -3.025213 -6.48950431 -3.12457615 0 0 Z M-11.375 2.375 C-14.86357856 7.90058633 -14.79624616 12.6347729 -14.74731445 18.95092773 C-14.75096512 20.00369904 -14.75461578 21.05647034 -14.75837708 22.1411438 C-14.7664687 25.61379231 -14.75288259 29.08597215 -14.73828125 32.55859375 C-14.73776244 34.97705586 -14.73828095 37.3955184 -14.73979187 39.8139801 C-14.73970221 44.88036401 -14.72928505 49.9465886 -14.71118164 55.01293945 C-14.68850707 61.50051028 -14.68794891 67.98784812 -14.69469929 74.47544765 C-14.69804437 79.46920331 -14.69139876 84.46290607 -14.68157005 89.45665169 C-14.67772618 91.84840683 -14.67656646 94.24016788 -14.6781559 96.63192558 C-14.67852764 99.97795653 -14.66587511 103.32369136 -14.6496582 106.66967773 C-14.65213562 107.65431503 -14.65461304 108.63895233 -14.65716553 109.65342712 C-14.61650742 114.92216326 -14.31174397 119.44276144 -12.375 124.375 C-9.87858872 125.89292644 -9.87858872 125.89292644 -7.375 126.375 C-5.33195936 124.71209687 -4.45315073 123.82735652 -3.99747658 121.1897974 C-3.9963455 120.33495982 -3.99521442 119.48012224 -3.99404907 118.59938049 C-3.9855896 117.61658112 -3.97713013 116.63378174 -3.96841431 115.62120056 C-3.974487 114.54423416 -3.98055969 113.46726776 -3.98681641 112.35766602 C-3.98155945 111.22248535 -3.97630249 110.08730469 -3.97088623 108.91772461 C-3.95765199 105.15464634 -3.96643735 101.39198903 -3.9765625 97.62890625 C-3.97454262 95.01960672 -3.9716319 92.41030773 -3.96786499 89.80101013 C-3.96240563 84.32749856 -3.96960288 78.85410838 -3.98388672 73.38061523 C-4.00020556 67.0543025 -3.99493124 60.72827993 -3.9784075 54.40197426 C-3.96314714 48.31560646 -3.96477033 42.22936719 -3.9735527 36.1429882 C-3.97555683 33.5533742 -3.97308803 30.96375281 -3.96611404 28.37414742 C-3.95851083 24.75647387 -3.97008918 21.13936027 -3.98681641 17.52172852 C-3.98074371 16.44678635 -3.97467102 15.37184418 -3.96841431 14.264328 C-3.97687378 13.2787088 -3.98533325 12.2930896 -3.99404907 11.27760315 C-3.99574569 9.99478124 -3.99574569 9.99478124 -3.99747658 8.68604374 C-4.46903028 5.79938516 -5.29191263 4.41874325 -7.375 2.375 C-8.695 2.375 -10.015 2.375 -11.375 2.375 Z " fill="#B4720F" transform="translate(1158.375,179.625)"/>
<path d="M0 0 C16.17 0 32.34 0 49 0 C49 16.17 49 32.34 49 49 C48.01 49 47.02 49 46 49 C45.93530518 48.44763672 45.87061035 47.89527344 45.80395508 47.32617188 C43.70204005 24.50569493 43.70204005 24.50569493 33 5 C30.03 4.67 27.06 4.34 24 4 C24.33 22.81 24.66 41.62 25 61 C29.75880977 58.62059511 30.2543457 57.2755617 32.16992188 52.59814453 C33.55374763 48.26676992 33.93181988 43.95499482 34.25 39.4375 C34.32734375 38.52419922 34.4046875 37.61089844 34.484375 36.66992188 C34.67055843 34.44735714 34.84216794 32.22472634 35 30 C35.99 30.33 36.98 30.66 38 31 C38 52.45 38 73.9 38 96 C37.01 96.33 36.02 96.66 35 97 C34.90203125 95.73285156 34.8040625 94.46570313 34.703125 93.16015625 C34.13919304 80.3532385 34.13919304 80.3532385 29 69 C27.35 68.01 25.7 67.02 24 66 C24 85.8 24 105.6 24 126 C32.86899784 122.67412581 35.25961548 120.72229446 39.15234375 112.59375 C43.89112701 100.71996855 45.37050831 87.67666023 46 75 C46.99 75 47.98 75 49 75 C49 92.82 49 110.64 49 129 C32.5 129 16 129 -1 129 C-1 128.01 -1 127.02 -1 126 C0.98 126 2.96 126 5 126 C5 85.41 5 44.82 5 3 C3.02 3 1.04 3 -1 3 C-0.67 2.01 -0.34 1.02 0 0 Z " fill="#B8791B" transform="translate(563,39)"/>
<path d="M0 0 C16.5 0 33 0 50 0 C50 16.17 50 32.34 50 49 C49.01 49 48.02 49 47 49 C45.78332833 46.56665665 45.69851819 44.32225184 45.45556641 41.64208984 C44.79143655 34.51965203 43.63855116 27.74444825 41.625 20.875 C41.4280957 20.18978271 41.23119141 19.50456543 41.02832031 18.79858398 C39.5848937 14.11318448 37.6421321 10.13688413 35 6 C32.02050148 4.36620684 32.02050148 4.36620684 24 4 C24 23.14 24 42.28 24 62 C30.30313155 57.7979123 32.46236697 55.14135758 34 48 C34.13929356 46.63323368 34.24365301 45.2625433 34.31640625 43.890625 C34.35830078 43.13652344 34.40019531 42.38242188 34.44335938 41.60546875 C34.48267578 40.82816406 34.52199219 40.05085938 34.5625 39.25 C34.62727539 38.06083984 34.62727539 38.06083984 34.69335938 36.84765625 C34.79902991 34.89862185 34.89997966 32.94933252 35 31 C35.99 30.67 36.98 30.34 38 30 C38 52.11 38 74.22 38 97 C37.01 96.67 36.02 96.34 35 96 C34.97421875 94.97261719 34.9484375 93.94523437 34.921875 92.88671875 C34.53653427 80.43383085 34.53653427 80.43383085 30 69 C28.35 68.01 26.7 67.02 25 66 C24.67 85.8 24.34 105.6 24 126 C33.23144352 123.24772853 33.23144352 123.24772853 37.72265625 116.65625 C44.05101707 103.49635595 45.439356 89.31143755 47 75 C47.99 75.33 48.98 75.66 50 76 C50 93.49 50 110.98 50 129 C33.17 129 16.34 129 -1 129 C-1 128.01 -1 127.02 -1 126 C1.31 126 3.62 126 6 126 C6 85.41 6 44.82 6 3 C4.02 3 2.04 3 0 3 C0 2.01 0 1.02 0 0 Z " fill="#B3710D" transform="translate(848,39)"/>
<path d="M0 0 C16.5 0 33 0 50 0 C50 16.17 50 32.34 50 49 C49.01 49 48.02 49 47 49 C45.85941455 45.57824366 45.60708164 42.46724135 45.25 38.875 C44.55153788 32.72697492 43.35818658 26.87741183 41.625 20.9375 C41.4280957 20.24833496 41.23119141 19.55916992 41.02832031 18.84912109 C39.58855666 14.13956033 37.65671545 10.15442556 35 6 C32.02050148 4.36620684 32.02050148 4.36620684 24 4 C24 23.14 24 42.28 24 62 C30.30313155 57.7979123 32.46236697 55.14135758 34 48 C34.13929356 46.63323368 34.24365301 45.2625433 34.31640625 43.890625 C34.35830078 43.13652344 34.40019531 42.38242188 34.44335938 41.60546875 C34.48267578 40.82816406 34.52199219 40.05085938 34.5625 39.25 C34.62727539 38.06083984 34.62727539 38.06083984 34.69335938 36.84765625 C34.79902991 34.89862185 34.89997966 32.94933252 35 31 C35.99 30.67 36.98 30.34 38 30 C38 52.11 38 74.22 38 97 C37.01 96.67 36.02 96.34 35 96 C34.97421875 94.97261719 34.9484375 93.94523437 34.921875 92.88671875 C34.53653427 80.43383085 34.53653427 80.43383085 30 69 C28.35 68.01 26.7 67.02 25 66 C24.67 85.8 24.34 105.6 24 126 C33.16771109 123.33674693 33.16771109 123.33674693 37.66015625 116.87109375 C43.88200937 103.53855135 45.4695839 89.49988258 47 75 C47.99 75.33 48.98 75.66 50 76 C50 93.49 50 110.98 50 129 C33.17 129 16.34 129 -1 129 C-1 128.01 -1 127.02 -1 126 C1.31 126 3.62 126 6 126 C6 85.41 6 44.82 6 3 C4.02 3 2.04 3 0 3 C0 2.01 0 1.02 0 0 Z " fill="#B3710D" transform="translate(677,39)"/>
<path d="M0 0 C16.5 0 33 0 50 0 C50 15.84 50 31.68 50 48 C49.01 48.33 48.02 48.66 47 49 C46.84144531 47.741875 46.68289063 46.48375 46.51953125 45.1875 C44.09612103 23.74909623 44.09612103 23.74909623 34.3125 5.1875 C31.23459774 3.43992684 31.23459774 3.43992684 24 3 C24.33 22.14 24.66 41.28 25 61 C30.31265597 57.81240642 31.88234241 55.8724612 33.55834961 50.06542969 C34.00417356 47.98048184 34.20357027 46.01838921 34.31640625 43.890625 C34.35830078 43.13652344 34.40019531 42.38242188 34.44335938 41.60546875 C34.48267578 40.82816406 34.52199219 40.05085938 34.5625 39.25 C34.62727539 38.06083984 34.62727539 38.06083984 34.69335938 36.84765625 C34.79902991 34.89862185 34.89997966 32.94933252 35 31 C35.99 30.67 36.98 30.34 38 30 C38 51.78 38 73.56 38 96 C37.01 96 36.02 96 35 96 C34.97421875 94.88882813 34.9484375 93.77765625 34.921875 92.6328125 C34.61856057 79.04884629 34.61856057 79.04884629 28.4921875 67.2421875 C27.06740958 65.78673716 27.06740958 65.78673716 25 66 C24.67 85.8 24.34 105.6 24 126 C33.11285189 123.04628309 33.11285189 123.04628309 37.91796875 116.61328125 C43.52337529 103.07531384 45.46781614 89.51663111 47 75 C47.99 75 48.98 75 50 75 C50 92.82 50 110.64 50 129 C33.5 129 17 129 0 129 C-0.33 128.01 -0.66 127.02 -1 126 C1.31 126 3.62 126 6 126 C6 85.41 6 44.82 6 3 C4.02 3 2.04 3 0 3 C0 2.01 0 1.02 0 0 Z " fill="#B3700C" transform="translate(470,179)"/>
<path d="M0 0 C3.96516109 -0.07493036 7.93004014 -0.12896449 11.89575195 -0.16479492 C13.89744576 -0.18705458 15.89894275 -0.22520146 17.90039062 -0.26367188 C28.55873675 -0.34421353 36.32070581 0.56530073 44.2109375 8.046875 C52.17799102 16.74453168 53.34986915 25.95498843 53.3125 37.375 C53.32861328 38.35210937 53.34472656 39.32921875 53.36132812 40.3359375 C53.36818036 50.64170322 51.27306928 59.41847465 44 67 C37.00345259 73.08222587 33.87235666 74 24 74 C24 91.16 24 108.32 24 126 C25.98 126 27.96 126 30 126 C30 126.99 30 127.98 30 129 C19.77 129 9.54 129 -1 129 C-0.67 128.01 -0.34 127.02 0 126 C1.98 126 3.96 126 6 126 C6 85.41 6 44.82 6 3 C3.69 3 1.38 3 -1 3 C-0.67 2.01 -0.34 1.02 0 0 Z M24 4 C24 26.11 24 48.22 24 71 C30.54537305 70.72536343 30.54537305 70.72536343 32.91323853 68.28794861 C34.24431577 65.48564433 34.38069517 63.49462733 34.38818359 60.39282227 C34.39764008 59.26807999 34.40709656 58.14333771 34.4168396 56.98451233 C34.41076691 55.77403732 34.40469421 54.56356232 34.3984375 53.31640625 C34.40130768 52.06874985 34.40417786 50.82109344 34.40713501 49.53562927 C34.40917681 46.8967264 34.40514824 44.25865684 34.39111328 41.61987305 C34.37403869 38.24601414 34.38385432 34.87287215 34.40183067 31.49903965 C34.41531233 28.27146991 34.40585671 25.04398537 34.3984375 21.81640625 C34.40451019 20.60795547 34.41058289 19.3995047 34.4168396 18.1544342 C34.40738312 17.02653976 34.39792664 15.89864532 34.38818359 14.73657227 C34.38579681 13.74714127 34.38341003 12.75771027 34.38095093 11.73829651 C33.91114648 8.36131595 33.28379519 6.55622373 31 4 C28.69 4 26.38 4 24 4 Z " fill="#B36F0B" transform="translate(618,39)"/>
<path d="M0 0 C16.17 0 32.34 0 49 0 C49 16.17 49 32.34 49 49 C48.01 48.67 47.02 48.34 46 48 C45.91363281 46.89785156 45.82726562 45.79570312 45.73828125 44.66015625 C43.85207856 23.34142206 43.85207856 23.34142206 34 5 C30.7 4.34 27.4 3.68 24 3 C24.33 22.14 24.66 41.28 25 61 C29.23762655 58.91103838 29.23762655 58.91103838 31.1875 55.125 C31.51105469 54.44695312 31.83460938 53.76890625 32.16796875 53.0703125 C33.52427048 49.69547722 34.1242118 46.51486315 34.31640625 42.890625 C34.35830078 42.13652344 34.40019531 41.38242188 34.44335938 40.60546875 C34.48267578 39.82816406 34.52199219 39.05085938 34.5625 38.25 C34.62727539 37.06083984 34.62727539 37.06083984 34.69335938 35.84765625 C34.79902991 33.89862185 34.89997966 31.94933252 35 30 C35.99 30 36.98 30 38 30 C38 51.78 38 73.56 38 96 C37.01 96 36.02 96 35 96 C34.97421875 94.97261719 34.9484375 93.94523437 34.921875 92.88671875 C34.52216654 79.18831323 34.52216654 79.18831323 28.4921875 67.20703125 C27.06071559 65.79036485 27.06071559 65.79036485 25 66 C24.67 85.8 24.34 105.6 24 126 C34.54797282 121.31201208 36.8251291 118.46067466 40.83203125 108.36328125 C44.62433659 97.44296386 45.56876552 86.45001897 46 75 C46.99 75 47.98 75 49 75 C49 92.82 49 110.64 49 129 C32.5 129 16 129 -1 129 C-1 128.01 -1 127.02 -1 126 C1.31 126 3.62 126 6 126 C6 85.41 6 44.82 6 3 C4.02 3 2.04 3 0 3 C0 2.01 0 1.02 0 0 Z " fill="#B4720E" transform="translate(637,179)"/>
<path d="M0 0 C18.48 0 36.96 0 56 0 C56 18.81 56 37.62 56 57 C55.01 56.67 54.02 56.34 53 56 C52.91363281 54.87207031 52.82726562 53.74414062 52.73828125 52.58203125 C51.96311318 43.54326066 50.72023846 34.7706808 48.625 25.9375 C48.42817627 25.09485596 48.23135254 24.25221191 48.02856445 23.3840332 C45.80600322 14.38832343 45.80600322 14.38832343 42 6 C40.68 5.34 39.36 4.68 38 4 C38 44.26 38 84.52 38 126 C40.31 126 42.62 126 45 126 C45 126.99 45 127.98 45 129 C33.78 129 22.56 129 11 129 C11 128.01 11 127.02 11 126 C13.64 126 16.28 126 19 126 C19 85.74 19 45.48 19 4 C15.06061529 4.51936679 15.06061529 4.51936679 13.82446289 6.6862793 C11.35541843 12.62846827 9.72721468 18.51363045 8.4375 24.8125 C8.22843018 25.80064697 8.01936035 26.78879395 7.80395508 27.80688477 C5.8060651 37.47994418 4.3183785 47.21398723 3 57 C2.01 56.67 1.02 56.34 0 56 C0 37.52 0 19.04 0 0 Z " fill="#B77717" transform="translate(960,39)"/>
<path d="M0 0 C18.48 0 36.96 0 56 0 C56 18.48 56 36.96 56 56 C55.01 56 54.02 56 53 56 C52.90501221 55.31188232 52.81002441 54.62376465 52.7121582 53.91479492 C51.0782202 42.26001697 49.44838177 30.6416867 46.4375 19.25 C46.24003174 18.49614014 46.04256348 17.74228027 45.83911133 16.96557617 C44.66055587 12.7176334 43.31824024 8.78627012 41 5 C39.68 4.34 38.36 3.68 37 3 C37 43.59 37 84.18 37 126 C39.31 126 41.62 126 44 126 C44 126.99 44 127.98 44 129 C32.78 129 21.56 129 10 129 C10 128.01 10 127.02 10 126 C12.64 126 15.28 126 18 126 C18 85.41 18 44.82 18 3 C13.05890795 5.47054603 12.79733293 6.86436256 11.00390625 11.80859375 C6.45728095 26.26226249 4.64642053 40.97925783 3 56 C2.01 56 1.02 56 0 56 C0 37.52 0 19.04 0 0 Z " fill="#B67616" transform="translate(1026,179)"/>
<path d="M0 0 C7.92 0 15.84 0 24 0 C28.95 26.73 33.9 53.46 39 81 C39.04125 69.016875 39.0825 57.03375 39.125 44.6875 C39.14320801 40.90369873 39.16141602 37.11989746 39.18017578 33.22143555 C39.18686462 29.82987395 39.18686462 29.82987395 39.19088745 26.43830872 C39.19395876 24.92759524 39.2009932 23.41688667 39.21115112 21.90620422 C39.22576832 19.6179655 39.22781276 17.33002639 39.22705078 15.04174805 C39.23371262 13.10648506 39.23371262 13.10648506 39.24050903 11.13212585 C39.24440929 7.83646499 39.24440929 7.83646499 37 5 C34.44816596 3.79549696 34.44816596 3.79549696 32 3 C32 2.01 32 1.02 32 0 C37.28 0 42.56 0 48 0 C48 1.32 48 2.64 48 4 C47.350704 4.63783543 46.701408 5.27567085 46.03243637 5.93283463 C43.52490369 8.48321446 43.49560898 9.55823485 43.48101807 13.074646 C43.46014885 14.61006294 43.46014885 14.61006294 43.43885803 16.17649841 C43.44640358 17.8520858 43.44640358 17.8520858 43.45410156 19.56152344 C43.44376389 20.74228958 43.43342621 21.92305573 43.42277527 23.13960266 C43.39834298 26.372888 43.3915105 29.60563647 43.39249516 32.83899593 C43.38936584 36.21967573 43.36374736 39.60018328 43.34051514 42.98077393 C43.29995274 49.38030372 43.27961396 55.77973162 43.26654124 62.17937016 C43.25067193 69.46599367 43.21225669 76.75244374 43.17194796 84.03896666 C43.08954585 99.02592415 43.03625551 114.01285472 43 129 C38.38 129 33.76 129 29 129 C26.33550645 117.96344417 24.24096127 106.86591172 22.20703125 95.69921875 C21.89264389 93.98485458 21.57798765 92.2705397 21.26306152 90.55627441 C20.10963135 84.26727686 18.9613651 77.9773331 17.8125 71.6875 C15.234375 57.600625 12.65625 43.51375 10 29 C10 60.68 10 92.36 10 125 C12.31 125.33 14.62 125.66 17 126 C17 126.99 17 127.98 17 129 C11.06 129 5.12 129 -1 129 C0 126 0 126 2.03006363 124.61977673 C4.20224311 123.17110969 4.20224311 123.17110969 4.50780869 120.75677204 C4.51149586 119.87461616 4.51518303 118.99246027 4.51898193 118.08357239 C4.53289474 117.06974991 4.54680756 116.05592743 4.56114197 115.01138306 C4.55359642 113.34442886 4.55359642 113.34442886 4.54589844 111.64379883 C4.55623611 110.47293228 4.56657379 109.30206573 4.57722473 108.09571838 C4.60168366 104.88509962 4.60848867 101.67502077 4.60750484 98.4643271 C4.61063093 95.1089985 4.63624267 91.75384404 4.65948486 88.39860535 C4.70007202 82.04508305 4.72039185 75.69166346 4.73345876 69.33803147 C4.7493197 62.10463369 4.78773139 54.87141092 4.82805204 47.63811457 C4.91048801 32.758801 4.96455691 17.87950526 5 3 C3.35 3 1.7 3 0 3 C0 2.01 0 1.02 0 0 Z " fill="#B77818" transform="translate(734,39)"/>
<path d="M0 0 C7.92 0 15.84 0 24 0 C25.17346413 6.08897497 26.34577869 12.17815354 27.515625 18.26782227 C27.91053838 20.32197309 28.3060111 22.3760165 28.70214844 24.42993164 C32.26937526 42.92920406 35.65450767 61.45961493 39 80 C39.06946019 70.53383128 39.12279088 61.06775006 39.15543652 51.60138226 C39.1711035 47.20592445 39.19236044 42.81064078 39.22631836 38.4152832 C39.25887524 34.17481076 39.27684523 29.93450599 39.28463173 25.69391823 C39.29018187 24.07474947 39.30101979 22.45559006 39.31719017 20.83649254 C39.33891617 18.57137477 39.34196903 16.30695297 39.34057617 14.04174805 C39.34723801 12.75157272 39.35389984 11.4613974 39.36076355 10.13212585 C39.26498331 7.03558292 39.26498331 7.03558292 37.61543274 5.1028595 C35.76764034 3.84136755 34.19415237 3.37830213 32 3 C32 2.01 32 1.02 32 0 C37.61 0 43.22 0 49 0 C48 4 48 4 45.96993637 5.93283463 C43.53694194 8.48591295 43.49542816 9.60181287 43.48101807 13.074646 C43.46014885 14.61006294 43.46014885 14.61006294 43.43885803 16.17649841 C43.44640358 17.8520858 43.44640358 17.8520858 43.45410156 19.56152344 C43.44376389 20.74228958 43.43342621 21.92305573 43.42277527 23.13960266 C43.39834298 26.372888 43.3915105 29.60563647 43.39249516 32.83899593 C43.38936584 36.21967573 43.36374736 39.60018328 43.34051514 42.98077393 C43.29995274 49.38030372 43.27961396 55.77973162 43.26654124 62.17937016 C43.25067193 69.46599367 43.21225669 76.75244374 43.17194796 84.03896666 C43.08954585 99.02592415 43.03625551 114.01285472 43 129 C38.38 129 33.76 129 29 129 C24.59558651 107.5331431 20.637295 85.99167108 16.6875 64.4375 C14.480625 52.413125 12.27375 40.38875 10 28 C10 59.35 10 90.7 10 123 C12.31 123.99 14.62 124.98 17 126 C17 126.99 17 127.98 17 129 C11.06 129 5.12 129 -1 129 C-1 128.01 -1 127.02 -1 126 C-0.360625 125.71125 0.27875 125.4225 0.9375 125.125 C3.15206079 124.17176549 3.15206079 124.17176549 4 122 C4.10433432 120.41648712 4.14652541 118.82869403 4.15821838 117.24179077 C4.1680072 116.23775711 4.17779602 115.23372345 4.18788147 114.19926453 C4.19363693 113.09371719 4.1993924 111.98816986 4.20532227 110.84912109 C4.21522186 109.68815414 4.22512146 108.52718719 4.23532104 107.33103943 C4.26700799 103.47852648 4.29172191 99.62600117 4.31640625 95.7734375 C4.33696957 93.10828214 4.35791751 90.4431326 4.37937927 87.77798462 C4.42932463 81.47049252 4.4742566 75.16297499 4.51740164 68.85543311 C4.56675828 61.67532385 4.62168223 54.49526058 4.67708123 47.3151958 C4.79092955 32.54350749 4.89776238 17.77177334 5 3 C3.35 3 1.7 3 0 3 C0 2.01 0 1.02 0 0 Z " fill="#B77819" transform="translate(1182,179)"/>
<path d="M0 0 C2.50496309 1.42574974 3.98707396 2.88113049 6 5 C8.68636197 4.02992484 10.84578404 3.11792985 13.125 1.375 C15 0 15 0 18 0 C18 16.17 18 32.34 18 49 C17.01 49.33 16.02 49.66 15 50 C13.95147715 45.38835527 12.94020635 40.78160007 12.0703125 36.1328125 C9.72237978 19.02628372 9.72237978 19.02628372 1 5 C-2.54295504 4.16654185 -2.54295504 4.16654185 -6 5 C-8.83065086 7.83065086 -9.16224748 10.36776429 -9.1953125 14.2109375 C-9.12935108 18.60379096 -8.35768106 22.53678014 -6.9375 26.6875 C-6.69 27.42589111 -6.4425 28.16428223 -6.1875 28.92504883 C-2.82758823 38.29080289 1.85547347 47.11424418 6.44165039 55.92651367 C15.42940476 73.26481375 26.26419128 94.32099346 20.75 114.25 C18.2946564 121.57013653 14.538563 126.47857611 7.75 130.25 C2.53516967 131.67222645 -2.19092569 131.69579781 -7.25 129.75 C-10.00500611 127.99681429 -12.5162923 126.11845657 -15 124 C-18.96 127.465 -18.96 127.465 -23 131 C-23.66 130.67 -24.32 130.34 -25 130 C-25 111.85 -25 93.7 -25 75 C-23.515 74.505 -23.515 74.505 -22 74 C-21.93006836 74.648479 -21.86013672 75.29695801 -21.78808594 75.96508789 C-19.60286242 101.06962516 -19.60286242 101.06962516 -9.125 123.5 C-6.26817348 125.51658343 -4.42656536 125.36452823 -1 125 C2.1248391 124.33488855 2.1248391 124.33488855 3.16015625 121.8984375 C4.17865447 118.38343435 4.37537541 115.2866965 4.4375 111.625 C4.47746094 110.35914063 4.51742188 109.09328125 4.55859375 107.7890625 C3.83708305 96.54478884 -1.95150633 85.38960218 -6.90490723 75.50109863 C-8.46958829 72.37447233 -9.99925344 69.230677 -11.53515625 66.08984375 C-11.83634369 65.47609894 -12.13753113 64.86235413 -12.44784546 64.23001099 C-14.96050635 59.10467293 -17.4027581 53.95308116 -19.75 48.75 C-20.06042236 48.07928467 -20.37084473 47.40856934 -20.69067383 46.7175293 C-25.44356226 36.0557177 -26.83804306 24.54860818 -23.04296875 13.359375 C-20.76909451 8.21547972 -17.79676273 4.30673653 -13.25 1 C-8.74806643 -0.38521033 -4.65980581 -0.84449555 0 0 Z " fill="#B57311" transform="translate(1263,178)"/>
<path d="M0 0 C7.92 0 15.84 0 24 0 C28.95 26.73 33.9 53.46 39 81 C39.04125 69.016875 39.0825 57.03375 39.125 44.6875 C39.14320801 40.90369873 39.16141602 37.11989746 39.18017578 33.22143555 C39.18686462 29.82987395 39.18686462 29.82987395 39.19088745 26.43830872 C39.19395876 24.92759524 39.2009932 23.41688667 39.21115112 21.90620422 C39.22576832 19.6179655 39.22781276 17.33002639 39.22705078 15.04174805 C39.23371262 13.10648506 39.23371262 13.10648506 39.24050903 11.13212585 C39.24440929 7.83646499 39.24440929 7.83646499 37 5 C33.94570927 3.78715124 33.94570927 3.78715124 31 3 C31.33 2.01 31.66 1.02 32 0 C37.28 0 42.56 0 48 0 C48 1.32 48 2.64 48 4 C47.350704 4.63783543 46.701408 5.27567085 46.03243637 5.93283463 C43.52490369 8.48321446 43.49560898 9.55823485 43.48101807 13.074646 C43.46014885 14.61006294 43.46014885 14.61006294 43.43885803 16.17649841 C43.44640358 17.8520858 43.44640358 17.8520858 43.45410156 19.56152344 C43.44376389 20.74228958 43.43342621 21.92305573 43.42277527 23.13960266 C43.39834298 26.372888 43.3915105 29.60563647 43.39249516 32.83899593 C43.38936584 36.21967573 43.36374736 39.60018328 43.34051514 42.98077393 C43.29995274 49.38030372 43.27961396 55.77973162 43.26654124 62.17937016 C43.25067193 69.46599367 43.21225669 76.75244374 43.17194796 84.03896666 C43.08954585 99.02592415 43.03625551 114.01285472 43 129 C38.38 129 33.76 129 29 129 C26.24279699 117.60532108 24.09988261 106.1339428 21.98828125 94.60546875 C21.61167893 92.56133927 21.23481807 90.5172574 20.85771179 88.47322083 C19.87372071 83.13583644 18.89320555 77.79781942 17.91345215 72.45965576 C16.90992499 66.99549827 15.90305756 61.53195641 14.89648438 56.06835938 C12.92774926 45.3795008 10.96269155 34.68996982 9 24 C8.97682254 36.15244963 8.95905732 48.30489399 8.94818783 60.45736122 C8.94297084 66.10032558 8.93589465 71.74327481 8.92456055 77.38623047 C8.91368964 82.83269779 8.90771423 88.27915056 8.90512276 93.7256279 C8.9032761 95.8028219 8.89967006 97.88001511 8.89426994 99.95720291 C8.88700378 102.8681332 8.88601142 105.77900349 8.88647461 108.68994141 C8.88287933 109.54733917 8.87928406 110.40473694 8.87557983 111.28811646 C8.88306711 115.64093899 9.12624103 119.71346071 10 124 C12.31 124.66 14.62 125.32 17 126 C17 126.99 17 127.98 17 129 C11.06 129 5.12 129 -1 129 C0 126 0 126 2.03006363 124.12491989 C4.42213204 121.54465698 4.5043724 120.4637417 4.51898193 117.00128174 C4.53289474 115.99449875 4.54680756 114.98771576 4.56114197 113.95042419 C4.55359642 112.30288902 4.55359642 112.30288902 4.54589844 110.62207031 C4.55623611 109.46081131 4.56657379 108.29955231 4.57722473 107.10310364 C4.60674352 103.26130406 4.60815389 99.42002926 4.609375 95.578125 C4.62435052 92.91580485 4.64088103 90.25354003 4.65948486 87.59124756 C4.70004555 81.2979657 4.72038563 75.00478746 4.73345876 68.71139503 C4.74932866 61.54568667 4.78774414 54.38015466 4.82805204 47.21454859 C4.91045171 32.47643667 4.96454337 17.7383014 5 3 C3.35 3 1.7 3 0 3 C0 2.01 0 1.02 0 0 Z " fill="#B77718" transform="translate(905,39)"/>
<path d="M0 0 C7.59 0 15.18 0 23 0 C25.2738775 9.52315234 27.18983989 19.07327794 28.91796875 28.70703125 C29.18245187 30.16823674 29.44721239 31.62939205 29.7122345 33.09049988 C30.40048593 36.88908439 31.08503174 40.68832705 31.76873779 44.48773193 C32.47048751 48.3835117 33.17583667 52.2786396 33.88085938 56.17382812 C35.25737742 63.78192798 36.62997104 71.39072863 38 79 C38.02313952 69.64691135 38.04092333 60.29383251 38.05181217 50.94072151 C38.05703746 46.5980033 38.06412873 42.25530462 38.07543945 37.91259766 C38.08628085 33.72401613 38.09227951 29.53545344 38.09487724 25.34685898 C38.09672922 23.74642515 38.10034552 22.1459924 38.10573006 20.54556656 C38.1129571 18.30916339 38.11399023 16.07283869 38.11352539 13.83642578 C38.115746 12.56179474 38.11796661 11.2871637 38.12025452 9.97390747 C38.20678562 7.07131256 38.20678562 7.07131256 37 5 C35.02111039 4.27306096 33.02045442 3.60183749 31 3 C31 2.01 31 1.02 31 0 C36.61 0 42.22 0 48 0 C48 1.32 48 2.64 48 4 C47.360625 4.2475 46.72125 4.495 46.0625 4.75 C43.866292 5.78231066 43.866292 5.78231066 43.3809824 7.76570511 C42.96344102 10.21440238 42.86012797 12.51409752 42.84178162 14.99871826 C42.82709839 16.50889275 42.82709839 16.50889275 42.81211853 18.04957581 C42.80636307 19.14793259 42.8006076 20.24628937 42.79467773 21.37792969 C42.78477814 22.53918869 42.77487854 23.70044769 42.76467896 24.89689636 C42.73306998 28.73853511 42.70830876 32.58018622 42.68359375 36.421875 C42.66302371 39.0841718 42.64207477 41.7464629 42.62062073 44.40875244 C42.57073886 50.70201186 42.52578335 56.99529643 42.48259836 63.28860497 C42.43318744 70.45425022 42.37828362 77.61985008 42.32291877 84.78545141 C42.20916792 99.52359141 42.10250874 114.26177745 42 129 C37.38 129 32.76 129 28 129 C26.55558037 121.31185667 25.11176978 113.62359946 23.66886806 105.93517113 C22.99792499 102.36020052 22.32677289 98.7852695 21.6550293 95.21044922 C17.38460108 72.48316395 13.17689424 49.74465564 9 27 C8.95371305 39.33463355 8.91814933 51.66924654 8.89637566 64.00394917 C8.88592678 69.73109817 8.87174744 75.45818787 8.84912109 81.18530273 C8.82743209 86.70956698 8.81543969 92.23377409 8.81024551 97.75807762 C8.80654266 99.86845995 8.79931218 101.97883907 8.78853989 104.08919716 C8.77407742 107.03910775 8.77201986 109.98878052 8.77294922 112.9387207 C8.76575867 113.81625504 8.75856812 114.69378937 8.75115967 115.59791565 C8.75546256 120.59566567 8.75546256 120.59566567 11 125 C13.56282742 125.72965366 13.56282742 125.72965366 16 126 C16 126.99 16 127.98 16 129 C10.39 129 4.78 129 -1 129 C-1 128.01 -1 127.02 -1 126 C-0.360625 125.7525 0.27875 125.505 0.9375 125.25 C3.13466396 124.21741361 3.13466396 124.21741361 3.6190176 122.22954941 C4.03295638 119.80713577 4.13975715 117.53519138 4.15821838 115.07720947 C4.17290161 113.59227745 4.17290161 113.59227745 4.18788147 112.0773468 C4.19363693 110.9976915 4.1993924 109.91803619 4.20532227 108.80566406 C4.21522186 107.6639122 4.22512146 106.52216034 4.23532104 105.34580994 C4.26692734 101.56910277 4.29169018 97.79238303 4.31640625 94.015625 C4.33697652 91.39816967 4.35797301 88.78071767 4.37937927 86.16326904 C4.42925896 79.97625794 4.47421527 73.78922126 4.51740164 67.60216022 C4.56681443 60.55743116 4.62171755 53.51274824 4.67708123 46.46806383 C4.79082873 31.97875292 4.89768347 17.48939608 5 3 C3.02 3 1.04 3 -1 3 C-0.67 2.01 -0.34 1.02 0 0 Z " fill="#B47210" transform="translate(449,39)"/>
<path d="M0 0 C2.92725518 1.36447862 5.45952685 3.01303776 8 5 C8.47050781 4.6390625 8.94101562 4.278125 9.42578125 3.90625 C10.04839844 3.4421875 10.67101562 2.978125 11.3125 2.5 C12.23482422 1.80390625 12.23482422 1.80390625 13.17578125 1.09375 C15 0 15 0 18 0 C18 16.5 18 33 18 50 C17.01 50 16.02 50 15 50 C14.82984375 48.9584375 14.6596875 47.916875 14.484375 46.84375 C11.61885865 24.25843124 11.61885865 24.25843124 1 5 C-3.17318334 4.52929448 -3.17318334 4.52929448 -6.8125 6.3125 C-9.43519896 10.03949326 -9.21917143 13.59806983 -9 18 C-6.56319593 28.75587548 -2.13227797 38.54750855 2.81680298 48.3404541 C4.62582809 51.92542799 6.39092986 55.53198306 8.16015625 59.13671875 C8.50191391 59.83117096 8.84367157 60.52562317 9.19578552 61.24111938 C17.59823942 78.36368862 26.45157027 97.60150946 20.5 116.9375 C17.84838935 123.33533637 13.41584573 126.98552687 7.5625 130.4375 C2.10753674 131.63493096 -2.89598528 131.92337106 -7.9375 129.25 C-10.88449143 127.08486344 -11.61511498 126.18456653 -13 123 C-13.71027344 123.5775 -14.42054688 124.155 -15.15234375 124.75 C-16.07144531 125.4925 -16.99054687 126.235 -17.9375 127 C-18.85402344 127.7425 -19.77054688 128.485 -20.71484375 129.25 C-23 131 -23 131 -24 131 C-24 112.19 -24 93.38 -24 74 C-23.01 74.33 -22.02 74.66 -21 75 C-20.97421875 75.94617188 -20.9484375 76.89234375 -20.921875 77.8671875 C-20.36808084 92.28798738 -18.80720475 111.92257543 -9.03125 123.2890625 C-7.04891871 125.25378779 -7.04891871 125.25378779 -4 125.5 C-0.27036417 124.87839403 0.77211854 124.02355341 3 121 C6.61775816 111.91738885 4.69802613 103.1428641 1.4765625 94.171875 C1.21541656 93.43968246 0.95427063 92.70748993 0.68521118 91.95310974 C-2.47338053 83.36404395 -6.52688882 75.23302055 -10.625 67.0625 C-28.72352095 30.72200368 -28.72352095 30.72200368 -22.75 12.5625 C-20.89758548 8.79151331 -19.20794066 6.68571776 -16 4 C-15.113125 3.236875 -14.22625 2.47375 -13.3125 1.6875 C-8.76707888 -0.62809189 -5.00580488 -0.9289914 0 0 Z " fill="#B4720F" transform="translate(825,178)"/>
<path d="M0 0 C9.9 0 19.8 0 30 0 C30 0.99 30 1.98 30 3 C28.02 3 26.04 3 24 3 C24 43.59 24 84.18 24 126 C32.52703529 123.72544728 32.52703529 123.72544728 37 118 C43.03127461 104.77561885 44.95546902 90.26361027 47 76 C47.99 76 48.98 76 50 76 C50.15648778 93.70050615 49.65215819 111.31020917 49 129 C32.83 129 16.66 129 0 129 C0 128.01 0 127.02 0 126 C1.98 126 3.96 126 6 126 C6 85.41 6 44.82 6 3 C4.02 3 2.04 3 0 3 C0 2.01 0 1.02 0 0 Z " fill="#B26E08" transform="translate(909,179)"/>
<path d="M0 0 C9.9 0 19.8 0 30 0 C30 0.99 30 1.98 30 3 C28.02 3 26.04 3 24 3 C24 43.59 24 84.18 24 126 C32.54647333 123.73914949 32.54647333 123.73914949 37 118 C38.14209647 115.38174384 39.11490464 112.88857726 40 110.1875 C40.25346191 109.42646973 40.50692383 108.66543945 40.76806641 107.88134766 C44.02317436 97.51406588 45.47766558 86.73286766 47 76 C47.99 76 48.98 76 50 76 C50.07940096 87.65539867 49.82924602 99.28737355 49.5 110.9375 C49.335 116.898125 49.17 122.85875 49 129 C32.83 129 16.66 129 0 129 C-0.33 128.01 -0.66 127.02 -1 126 C1.31 126 3.62 126 6 126 C6 85.41 6 44.82 6 3 C4.02 3 2.04 3 0 3 C0 2.01 0 1.02 0 0 Z " fill="#B3700B" transform="translate(581,179)"/>
<path d="M0 0 C9.9 0 19.8 0 30 0 C30 0.99 30 1.98 30 3 C28.02 3 26.04 3 24 3 C24.03716093 18.44672942 24.09701309 33.89324739 24.18390274 49.33977127 C24.22371753 56.51183703 24.25609752 63.68379267 24.27099609 70.85595703 C24.2840001 77.10700558 24.31093231 83.3578121 24.35461307 89.60872436 C24.37725673 92.91883032 24.39083174 96.22857139 24.39188385 99.53876495 C24.39423986 103.23357238 24.42121137 106.92742643 24.45410156 110.62207031 C24.4490712 111.72042709 24.44404083 112.81878387 24.43885803 113.95042419 C24.45277084 114.95720718 24.46668365 115.96399017 24.48101807 117.00128174 C24.48470524 117.87514149 24.48839241 118.74900124 24.49219131 119.64934158 C25.17605723 122.81497309 26.46891882 124.03827217 29 126 C33.37025904 126.07945926 35.38830414 125.48935669 38.8125 122.75 C43.47495387 116.88862942 43.27887195 111.64239365 43.22705078 104.42651367 C43.22734283 103.36264435 43.22763489 102.29877502 43.22793579 101.20266724 C43.22654398 97.69101772 43.21098951 94.17958114 43.1953125 90.66796875 C43.19158185 88.23130916 43.18873512 85.79464807 43.18673706 83.35798645 C43.17910474 76.94808808 43.15945958 70.5382805 43.1373291 64.12841797 C43.11686211 57.58627551 43.10773351 51.04411837 43.09765625 44.50195312 C43.07621341 31.66793004 43.04246723 18.83396985 43 6 C41.02 5.01 39.04 4.02 37 3 C37 2.01 37 1.02 37 0 C42.28 0 47.56 0 53 0 C53 0.99 53 1.98 53 3 C52.01 3.33 51.02 3.66 50 4 C47.4430129 9.26870292 47.72021415 14.65527309 47.74462891 20.37646484 C47.74100845 21.40812271 47.737388 22.43978058 47.73365784 23.50270081 C47.72677833 25.73706556 47.72425568 27.97144706 47.72560501 30.20582199 C47.72657195 33.74553499 47.71360785 37.28494577 47.69662476 40.82461548 C47.65040272 50.886634 47.62574698 60.94862112 47.61914062 71.01074219 C47.61412123 77.17101543 47.58985033 83.3309724 47.55381393 89.49113846 C47.54402726 91.8346021 47.54167777 94.17810931 47.54698563 96.52158737 C47.55406964 99.80298333 47.53674561 103.08343893 47.51416016 106.36474609 C47.52233261 107.32708664 47.53050507 108.28942719 47.53892517 109.28092957 C47.46560432 115.285234 46.53731756 120.03455374 43 125 C35.90726384 130.76284813 28.84576113 130.57137691 20 130 C13.82024484 128.83883581 10.4739538 126.05302371 7 121 C6.0337556 118.10126681 5.8764605 116.28572407 5.87974548 113.27339172 C5.87837082 112.30164001 5.87699615 111.32988831 5.87557983 110.32868958 C5.87917511 109.26414047 5.88277039 108.19959137 5.88647461 107.1027832 C5.88632858 105.98068451 5.88618256 104.85858582 5.8860321 103.70248413 C5.88673002 99.98523032 5.89451683 96.26802633 5.90234375 92.55078125 C5.90420836 89.9767408 5.90563206 87.40269999 5.90663147 84.82865906 C5.91006243 78.74074472 5.91794782 72.65285101 5.92798096 66.56494445 C5.93915579 59.63393306 5.944656 52.70292083 5.94967639 45.77190268 C5.96013079 31.51459215 5.9777217 17.25729671 6 3 C4.02 3 2.04 3 0 3 C0 2.01 0 1.02 0 0 Z " fill="#B26E08" transform="translate(966,179)"/>
<path d="M0 0 C3.63 0 7.26 0 11 0 C13.21603274 14.99884982 15.1430315 30.01728841 16.91796875 45.07421875 C17.18253927 47.30388037 17.44729822 49.53351963 17.7122345 51.76313782 C18.26078894 56.38398432 18.80770208 61.00502083 19.35327148 65.6262207 C20.05349159 71.55695233 20.7570148 77.48728644 21.46161938 83.41749859 C22.00558774 87.99740892 22.54832495 92.57746442 23.09063148 97.15757179 C23.34992511 99.3469548 23.60949491 101.53630511 23.86934471 103.72562218 C24.22943287 106.76184805 24.58797552 109.79825227 24.94604492 112.8347168 C25.05354065 113.73895889 25.16103638 114.64320099 25.27178955 115.57484436 C26 121.77095109 26 121.77095109 26 124 C27.32 124 28.64 124 30 124 C30 124.99 30 125.98 30 127 C20.76 127 11.52 127 2 127 C2 126.01 2 125.02 2 124 C3.65 124 5.3 124 7 124 C6.855625 122.92621094 6.71125 121.85242188 6.5625 120.74609375 C6.37476571 119.30992644 6.18727891 117.87372676 6 116.4375 C5.85691406 115.38079102 5.85691406 115.38079102 5.7109375 114.30273438 C5.62070312 113.60341797 5.53046875 112.90410156 5.4375 112.18359375 C5.31181641 111.23311157 5.31181641 111.23311157 5.18359375 110.26342773 C4.93390269 107.18512211 5 104.08841563 5 101 C0.05 101 -4.9 101 -10 101 C-10 107.93 -10 114.86 -10 122 C-8.02 122.66 -6.04 123.32 -4 124 C-4.33 124.99 -4.66 125.98 -5 127 C-10.28 127 -15.56 127 -21 127 C-21 125.68 -21 124.36 -21 123 C-20.37399808 122.78167385 -19.74799616 122.5633477 -19.10302448 122.33840561 C-16.78952502 121.15054625 -16.78952502 121.15054625 -16.01027966 118.57934952 C-15.7929181 117.59138256 -15.57555655 116.6034156 -15.35160828 115.58551025 C-15.11299765 114.50233772 -14.87438702 113.41916519 -14.62854576 112.30316925 C-13.70095812 107.42845817 -12.98028427 102.55610261 -12.37426758 97.63183594 C-12.23727951 96.56694443 -12.10029144 95.50205292 -11.95915222 94.40489197 C-11.5141258 90.93221674 -11.07923942 87.45835556 -10.64453125 83.984375 C-10.33556485 81.5576387 -10.02595901 79.13098374 -9.71574402 76.70440674 C-8.90550456 70.35298885 -8.10389424 64.00051138 -7.30413818 57.64776611 C-6.48470822 51.15122769 -5.65703612 44.65573992 -4.83007812 38.16015625 C-3.21203013 25.44111323 -1.60310564 12.72093437 0 0 Z M-2 38 C-3.00042506 45.75915338 -3.99693958 53.51880174 -4.99072266 61.27880859 C-5.32905512 63.91926399 -5.66885015 66.55951952 -6.00927734 69.19970703 C-6.49812743 72.99221454 -6.98375573 76.78512272 -7.46875 80.578125 C-7.62186646 81.76053772 -7.77498291 82.94295044 -7.93273926 84.16119385 C-8.07288452 85.26203308 -8.21302979 86.36287231 -8.35742188 87.49707031 C-8.48177612 88.46525696 -8.60613037 89.4334436 -8.73425293 90.43096924 C-9.06859567 93.23267176 -9.06859567 93.23267176 -9 97 C-4.71 97 -0.42 97 4 97 C4.11725209 89.67760682 3.68642769 82.5822511 2.90625 75.3046875 C2.79526978 74.23123077 2.68428955 73.15777405 2.56994629 72.05178833 C2.21808076 68.65900694 1.85916032 65.26701611 1.5 61.875 C1.25864592 59.55994465 1.01775597 57.24484085 0.77734375 54.9296875 C0.19025936 49.28588735 -0.40260248 43.64271732 -1 38 C-1.33 38 -1.66 38 -2 38 Z " fill="#B57311" transform="translate(546,181)"/>
<path d="M0 0 C9.57 0 19.14 0 29 0 C29.33 0.99 29.66 1.98 30 3 C28.02 3 26.04 3 24 3 C24 43.59 24 84.18 24 126 C25.65 126 27.3 126 29 126 C29.33 126.99 29.66 127.98 30 129 C19.77 129 9.54 129 -1 129 C-1 128.01 -1 127.02 -1 126 C0.98 126 2.96 126 5 126 C5 85.41 5 44.82 5 3 C3.02 3 1.04 3 -1 3 C-0.67 2.01 -0.34 1.02 0 0 Z " fill="#B67717" transform="translate(411,39)"/>
<path d="M0 0 C10.23 0 20.46 0 31 0 C31 0.99 31 1.98 31 3 C28.69 3 26.38 3 24 3 C24 43.59 24 84.18 24 126 C25.98 126 27.96 126 30 126 C30 126.99 30 127.98 30 129 C20.1 129 10.2 129 0 129 C-0.33 128.01 -0.66 127.02 -1 126 C1.31 126 3.62 126 6 126 C6 85.41 6 44.82 6 3 C4.02 3 2.04 3 0 3 C0 2.01 0 1.02 0 0 Z " fill="#B06B03" transform="translate(1087,179)"/>
<path d="M0 0 C6.35833744 1.38412788 10.4332866 3.49293862 14.5 8.6328125 C24.09259473 23.77112606 23.18691268 43.78316464 23.18530273 61.00634766 C23.18747856 63.5994537 23.20566958 66.19212557 23.22460938 68.78515625 C23.36014709 108.55532349 23.36014709 108.55532349 12.64453125 121.4140625 C6.7828611 127.06688454 0.70761514 128.12994924 -7.171875 128.09765625 C-8.1955014 128.09553383 -8.1955014 128.09553383 -9.23980713 128.09336853 C-11.40991684 128.08779084 -13.5799217 128.07524254 -15.75 128.0625 C-17.22525892 128.05748211 -18.70051947 128.05291971 -20.17578125 128.04882812 C-23.78388798 128.03782875 -27.39193375 128.02057953 -31 128 C-31 127.01 -31 126.02 -31 125 C-29.02 125 -27.04 125 -25 125 C-25 84.41 -25 43.82 -25 2 C-24.67 2 -24.34 2 -24 2 C-24 42.92 -24 83.84 -24 126 C-16.74 126 -9.48 126 -2 126 C2.07938731 121.31638812 2.07938731 121.31638812 2.49447632 116.11795044 C2.5028653 115.16197968 2.51125427 114.20600891 2.51989746 113.22106934 C2.50865845 112.18405884 2.49741943 111.14704834 2.48583984 110.07861328 C2.48963654 108.97722015 2.49343323 107.87582703 2.49734497 106.74105835 C2.50475358 103.10051994 2.48335975 99.46078 2.4609375 95.8203125 C2.45855282 93.28832086 2.4576478 90.75632743 2.4581604 88.22433472 C2.45503166 82.91652515 2.43894996 77.60899171 2.41162109 72.30126953 C2.38020427 66.17723636 2.36962392 60.05345417 2.3710922 53.9293462 C2.3723162 48.02559919 2.36185421 42.12192402 2.34550858 36.21819687 C2.33915086 33.71200933 2.33520408 31.20581446 2.33372116 28.69961929 C2.3293754 25.19301165 2.31184535 21.68671612 2.29052734 18.18017578 C2.29143372 17.14721375 2.29234009 16.11425171 2.29327393 15.04998779 C2.2453143 9.64334707 1.79191564 5.11241502 0 0 Z " fill="#B8791B" transform="translate(533,40)"/>
<path d="M0 0 C0.33 0 0.66 0 1 0 C1 40.92 1 81.84 1 124 C7.93 124 14.86 124 22 124 C22.99 123.01 23.98 122.02 25 121 C25.78375 120.319375 26.5675 119.63875 27.375 118.9375 C38.37758648 106.6250818 39.50050413 87.76443684 41 72 C41.99 72.33 42.98 72.66 44 73 C44 90.49 44 107.98 44 126 C27.17 126 10.34 126 -7 126 C-7 125.01 -7 124.02 -7 123 C-4.69 123 -2.38 123 0 123 C0 82.41 0 41.82 0 0 Z " fill="#BE842D" transform="translate(854,42)"/>
<path d="M0 0 C0.33 0 0.66 0 1 0 C1 40.92 1 81.84 1 124 C8.26 124 15.52 124 23 124 C23 123.34 23 122.68 23 122 C24.299375 121.319375 24.299375 121.319375 25.625 120.625 C33.52287064 115.50256032 35.77777471 104.3327793 37.73388672 95.66943359 C39.3629163 87.85044231 40.24435538 79.94421121 41 72 C41.99 72.33 42.98 72.66 44 73 C44 90.49 44 107.98 44 126 C27.17 126 10.34 126 -7 126 C-7 125.01 -7 124.02 -7 123 C-4.69 123 -2.38 123 0 123 C0 82.41 0 41.82 0 0 Z " fill="#BE842E" transform="translate(683,42)"/>
<path d="M0 0 C5.28 0 10.56 0 16 0 C16 0.99 16 1.98 16 3 C15.01 3.33 14.02 3.66 13 4 C10.4430129 9.26870292 10.72021415 14.65527309 10.74462891 20.37646484 C10.74100845 21.40812271 10.737388 22.43978058 10.73365784 23.50270081 C10.72677833 25.73706556 10.72425568 27.97144706 10.72560501 30.20582199 C10.72657195 33.74553499 10.71360785 37.28494577 10.69662476 40.82461548 C10.65040272 50.886634 10.62574698 60.94862112 10.61914062 71.01074219 C10.61412123 77.17101543 10.58985033 83.3309724 10.55381393 89.49113846 C10.54402726 91.8346021 10.54167777 94.17810931 10.54698563 96.52158737 C10.55406964 99.80298333 10.53674561 103.08343893 10.51416016 106.36474609 C10.52233261 107.32708664 10.53050507 108.28942719 10.53892517 109.28092957 C10.46570395 115.27707547 9.55083795 120.04928306 6 125 C3.62104721 127.15400481 1.33056954 129 -2 129 C-2 128.34 -2 127.68 -2 127 C-2.66 126.67 -3.32 126.34 -4 126 C-2.63875 125.505 -2.63875 125.505 -1.25 125 C3.02340849 122.37021016 4.40934101 119.69671983 6 115 C6.52610067 111.3503618 6.50756374 107.76803271 6.45410156 104.0859375 C6.45468567 103.0216301 6.45526978 101.95732269 6.45587158 100.86076355 C6.45309904 97.3651699 6.42204507 93.87044353 6.390625 90.375 C6.38315969 87.94263169 6.37746813 85.51025735 6.37347412 83.07788086 C6.3582408 76.69255818 6.31897823 70.30760252 6.2746582 63.92242432 C6.23365616 57.40015629 6.21545254 50.87782866 6.1953125 44.35546875 C6.15248225 31.5701564 6.08503309 18.78509777 6 6 C4.02 5.01 2.04 4.02 0 3 C0 2.01 0 1.02 0 0 Z " fill="#C28D3C" transform="translate(1003,179)"/>
<path d="M0 0 C0.66 0 1.32 0 2 0 C2.06993164 0.648479 2.13986328 1.29695801 2.21191406 1.96508789 C4.57324697 28.77746625 4.57324697 28.77746625 17 52 C16.01 52.66 15.02 53.32 14 54 C12.35 52.68 10.7 51.36 9 50 C6.36 52.31 3.72 54.62 1 57 C0.34 56.67 -0.32 56.34 -1 56 C-1.02526563 48.18547248 -1.04283105 40.37095542 -1.05493164 32.55639648 C-1.05997383 29.89558519 -1.06680736 27.23477668 -1.07543945 24.57397461 C-1.08751009 20.75894484 -1.09322929 16.94395156 -1.09765625 13.12890625 C-1.10281754 11.93100967 -1.10797882 10.7331131 -1.11329651 9.49891663 C-1.11337204 8.3978508 -1.11344757 7.29678497 -1.11352539 6.16235352 C-1.115746 5.18750504 -1.11796661 4.21265656 -1.12025452 3.20826721 C-1 1 -1 1 0 0 Z " fill="#BF8631" transform="translate(1239,252)"/>
<path d="M0 0 C0 16.5 0 33 0 50 C-0.99 50 -1.98 50 -3 50 C-3.17015625 48.9584375 -3.3403125 47.916875 -3.515625 46.84375 C-6.38114135 24.25843124 -6.38114135 24.25843124 -17 5 C-18.98821313 4.60235737 -20.98944339 4.26224651 -23 4 C-23 3.67 -23 3.34 -23 3 C-15.73846154 1.64615385 -15.73846154 1.64615385 -12 3.4375 C-11.34 3.953125 -10.68 4.46875 -10 5 C-9.52949219 4.6390625 -9.05898438 4.278125 -8.57421875 3.90625 C-7.95160156 3.4421875 -7.32898438 2.978125 -6.6875 2.5 C-5.76517578 1.80390625 -5.76517578 1.80390625 -4.82421875 1.09375 C-3 0 -3 0 0 0 Z " fill="#BB7F26" transform="translate(843,178)"/>
<path d="M0 0 C0 16.17 0 32.34 0 49 C-1.485 49.495 -1.485 49.495 -3 50 C-4.04852285 45.38835527 -5.05979365 40.78160007 -5.9296875 36.1328125 C-8.841427 20.43859925 -8.841427 20.43859925 -15.3125 5.9375 C-15.869375 4.968125 -16.42625 3.99875 -17 3 C-16.67 2.34 -16.34 1.68 -16 1 C-14.68 2.32 -13.36 3.64 -12 5 C-9.31363803 4.02992484 -7.15421596 3.11792985 -4.875 1.375 C-3 0 -3 0 0 0 Z " fill="#BD832D" transform="translate(1281,178)"/>
<path d="M0 0 C0.99 0.33 1.98 0.66 3 1 C3.02578125 1.94617188 3.0515625 2.89234375 3.078125 3.8671875 C3.62952166 18.22555654 5.15720462 38.01475017 14.984375 49.2734375 C17.32479097 51.27821242 18.97290413 51.66365601 22 52 C20.02 52.495 20.02 52.495 18 53 C18.33 53.99 18.66 54.98 19 56 C15.66272214 54.82744291 13.22562513 53.81131596 11 51 C11 50.34 11 49.68 11 49 C10.28972656 49.5775 9.57945312 50.155 8.84765625 50.75 C7.46900391 51.86375 7.46900391 51.86375 6.0625 53 C4.68771484 54.11375 4.68771484 54.11375 3.28515625 55.25 C1 57 1 57 0 57 C0 38.19 0 19.38 0 0 Z " fill="#B8791B" transform="translate(801,252)"/>
<path d="M0 0 C0.66 0 1.32 0 2 0 C2 17.16 2 34.32 2 52 C-4.6 52 -11.2 52 -18 52 C-18 51.01 -18 50.02 -18 49 C-17.29875 48.62875 -16.5975 48.2575 -15.875 47.875 C-6.55602691 41.79740885 -4.61654659 30.24057995 -2.34765625 20.078125 C-1.03175818 13.43139896 -0.44797728 6.75502585 0 0 Z " fill="#B57412" transform="translate(609,115)"/>
<path d="M0 0 C5.61 0 11.22 0 17 0 C17 1.32 17 2.64 17 4 C16.360625 4.2475 15.72125 4.495 15.0625 4.75 C12.866292 5.78231066 12.866292 5.78231066 12.3809824 7.76570511 C11.96344102 10.21440238 11.86012797 12.51409752 11.84178162 14.99871826 C11.82709839 16.50889275 11.82709839 16.50889275 11.81211853 18.04957581 C11.80636307 19.14793259 11.8006076 20.24628937 11.79467773 21.37792969 C11.77982834 23.11981819 11.77982834 23.11981819 11.76467896 24.89689636 C11.73306998 28.73853511 11.70830876 32.58018622 11.68359375 36.421875 C11.66302371 39.0841718 11.64207477 41.7464629 11.62062073 44.40875244 C11.57073886 50.70201186 11.52578335 56.99529643 11.48259836 63.28860497 C11.43318744 70.45425022 11.37828362 77.61985008 11.32291877 84.78545141 C11.20916792 99.52359141 11.10250874 114.26177745 11 129 C6.38 129 1.76 129 -3 129 C-2.67 128.01 -2.34 127.02 -2 126 C-2 126.66 -2 127.32 -2 128 C1.96 128 5.92 128 10 128 C9.90648818 122.64283721 9.80039956 117.28612761 9.68261719 111.92944336 C9.64432005 110.10692176 9.60946845 108.28432437 9.578125 106.46166992 C9.53249021 103.84266059 9.47449378 101.22417326 9.4140625 98.60546875 C9.40251129 97.78974899 9.39096008 96.97402924 9.37905884 96.1335907 C9.27802726 92.26635496 9.1922681 90.28840215 7 87 C6.82123127 84.41197816 6.75794699 81.93411351 6.78881836 79.34741211 C6.7901326 78.56990097 6.79144684 77.79238983 6.7928009 76.99131775 C6.7992951 74.41986959 6.81972747 71.84871827 6.83984375 69.27734375 C6.84611311 67.49280622 6.85135355 65.70826479 6.85560608 63.92372131 C6.86891678 59.22429032 6.89335542 54.52498898 6.92095947 49.82562256 C6.96406153 42.29962168 6.99375474 34.77358521 7.0170002 27.24749947 C7.02725004 24.61392077 7.04429704 21.98044641 7.06199646 19.34690857 C7.06882231 17.73900446 7.07543109 16.1310994 7.08178711 14.52319336 C7.08852448 13.78703796 7.09526184 13.05088257 7.10220337 12.29241943 C7.17348395 8.52096327 7.17348395 8.52096327 6 5 C4.02111039 4.27306096 2.02045442 3.60183749 0 3 C0 2.01 0 1.02 0 0 Z " fill="#C8974F" transform="translate(480,39)"/>
<path d="M0 0 C5.61 0 11.22 0 17 0 C16 4 16 4 13.96993637 5.93283463 C11.53694194 8.48591295 11.49542816 9.60181287 11.48101807 13.074646 C11.46710526 14.09825729 11.45319244 15.12186859 11.43885803 16.17649841 C11.4438884 17.29355667 11.44891876 18.41061493 11.45410156 19.56152344 C11.44376389 20.74228958 11.43342621 21.92305573 11.42277527 23.13960266 C11.39834298 26.372888 11.3915105 29.60563647 11.39249516 32.83899593 C11.38936584 36.21967573 11.36374736 39.60018328 11.34051514 42.98077393 C11.29995274 49.38030372 11.27961396 55.77973162 11.26654124 62.17937016 C11.25067193 69.46599367 11.21225669 76.75244374 11.17194796 84.03896666 C11.08954585 99.02592415 11.03625551 114.01285472 11 129 C6.38 129 1.76 129 -3 129 C-3 128.67 -3 128.34 -3 128 C1.29 128 5.58 128 10 128 C9.67 115.13 9.34 102.26 9 89 C8.01 89.495 8.01 89.495 7 90 C7.00666183 88.96683151 7.01332367 87.93366302 7.02018738 86.8691864 C7.08094564 77.14278298 7.12594719 67.41641796 7.15543652 57.68986797 C7.17110684 52.68907971 7.19237004 47.68844438 7.22631836 42.68774414 C7.25886309 37.86372686 7.27684271 33.03985687 7.28463173 28.2157383 C7.29018404 26.37328586 7.30102608 24.53084167 7.31719017 22.68845177 C7.33889965 20.11202816 7.34196967 17.53621683 7.34057617 14.9597168 C7.351362 14.19439133 7.36214783 13.42906586 7.3732605 12.64054871 C7.37145472 8.59041363 7.37145472 8.59041363 5.61543274 5.04548645 C3.76731783 3.84941122 2.16095816 3.37257899 0 3 C0 2.01 0 1.02 0 0 Z " fill="#CB9C56" transform="translate(1214,179)"/>
<path d="M0 0 C5.28 0 10.56 0 16 0 C16 1.32 16 2.64 16 4 C15.350704 4.63783543 14.701408 5.27567085 14.03243637 5.93283463 C11.52490369 8.48321446 11.49560898 9.55823485 11.48101807 13.074646 C11.46710526 14.09825729 11.45319244 15.12186859 11.43885803 16.17649841 C11.4438884 17.29355667 11.44891876 18.41061493 11.45410156 19.56152344 C11.44376389 20.74228958 11.43342621 21.92305573 11.42277527 23.13960266 C11.39834298 26.372888 11.3915105 29.60563647 11.39249516 32.83899593 C11.38936584 36.21967573 11.36374736 39.60018328 11.34051514 42.98077393 C11.29995274 49.38030372 11.27961396 55.77973162 11.26654124 62.17937016 C11.25067193 69.46599367 11.21225669 76.75244374 11.17194796 84.03896666 C11.08954587 99.02592031 11.03545578 114.01285624 11 129 C10.67 129 10.34 129 10 129 C9.67 116.13 9.34 103.26 9 90 C8.01 90.495 8.01 90.495 7 91 C7.00444122 89.96683151 7.00888245 88.93366302 7.01345825 87.8691864 C7.05396385 78.14276295 7.08396491 68.41635656 7.10362434 58.68986797 C7.11407113 53.68912433 7.12824667 48.68844866 7.15087891 43.68774414 C7.17257535 38.86373538 7.18456188 34.03979208 7.18975449 29.2157383 C7.193456 27.37329897 7.20068392 25.5308633 7.21146011 23.68845177 C7.22593254 21.11212738 7.22797973 18.53607515 7.22705078 15.9597168 C7.23424133 15.19439133 7.24143188 14.42906586 7.24884033 13.64054871 C7.23410689 9.8759112 7.14294328 8.21441493 5 5 C2.44816596 3.79549696 2.44816596 3.79549696 0 3 C0 2.01 0 1.02 0 0 Z " fill="#CB9C56" transform="translate(766,39)"/>
<path d="M0 0 C16.5 0 33 0 50 0 C50 15.84 50 31.68 50 48 C49.67 48 49.34 48 49 48 C49 32.49 49 16.98 49 1 C35.14 1 21.28 1 7 1 C7 42.25 7 83.5 7 126 C6.67 126 6.34 126 6 126 C6 85.41 6 44.82 6 3 C4.02 3 2.04 3 0 3 C0 2.01 0 1.02 0 0 Z " fill="#CEA362" transform="translate(470,179)"/>
<path d="M0 0 C10.23 0 20.46 0 31 0 C31 0.99 31 1.98 31 3 C28.69 3 26.38 3 24 3 C24 2.67 24 2.34 24 2 C18.39 1.67 12.78 1.34 7 1 C7 42.25 7 83.5 7 126 C6.67 126 6.34 126 6 126 C6 85.41 6 44.82 6 3 C4.02 3 2.04 3 0 3 C0 2.01 0 1.02 0 0 Z " fill="#C69449" transform="translate(1087,179)"/>
<path d="M0 0 C10.89 0 21.78 0 33 0 C33 0.33 33 0.66 33 1 C24.42 1 15.84 1 7 1 C7 42.25 7 83.5 7 126 C6.67 126 6.34 126 6 126 C6 85.41 6 44.82 6 3 C4.02 3 2.04 3 0 3 C0 2.01 0 1.02 0 0 Z " fill="#C69348" transform="translate(692,179)"/>
<path d="M0 0 C1.49804688 1.29394531 1.49804688 1.29394531 3 3 C3.02560509 5.70133666 2.84661111 8.08656727 2.5 10.75 C2.40541504 11.57532227 2.31083008 12.40064453 2.21337891 13.25097656 C1.83094354 16.50365429 1.41577255 19.75140797 1 23 C0.80011881 24.58719719 0.60059966 26.17444 0.40136719 27.76171875 C-1.03387924 39.17866021 -2.50595458 50.59061545 -4 62 C-4.99 61.67 -5.98 61.34 -7 61 C-6.35150261 48.12412003 -4.60842731 35.39916708 -2.9375 22.625 C-2.6526317 20.42452614 -2.36812366 18.22400561 -2.08398438 16.0234375 C-1.39347388 10.68174671 -0.69852453 5.34064841 0 0 Z " fill="#CB9C57" transform="translate(542,212)"/>
<path d="M0 0 C9.9 0 19.8 0 30 0 C30 0.33 30 0.66 30 1 C22.41 1 14.82 1 7 1 C7 42.25 7 83.5 7 126 C6.67 126 6.34 126 6 126 C6 85.41 6 44.82 6 3 C4.02 3 2.04 3 0 3 C0 2.01 0 1.02 0 0 Z " fill="#C69246" transform="translate(909,179)"/>
<path d="M0 0 C0.99 0.33 1.98 0.66 3 1 C3 7.6 3 14.2 3 21 C4.98 21.66 6.96 22.32 9 23 C8.67 23.99 8.34 24.98 8 26 C2.72 26 -2.56 26 -8 26 C-8 24.68 -8 23.36 -8 22 C-7.37480469 21.78601563 -6.74960937 21.57203125 -6.10546875 21.3515625 C-3.14626656 19.45196332 -3.05371003 17.7597163 -2.3125 14.375 C-2.0753125 13.30507813 -1.838125 12.23515625 -1.59375 11.1328125 C-0.89021885 7.42075999 -0.36155649 3.76018746 0 0 Z " fill="#C38E3F" transform="translate(533,282)"/>
<path d="M0 0 C0.99 0.33 1.98 0.66 3 1 C2.5140207 8.3620694 2.02325928 15.69100518 1 23 C0.01 22.67 -0.98 22.34 -2 22 C-1.5140207 14.6379306 -1.02325928 7.30899482 0 0 Z " fill="#CB9C57" transform="translate(537,251)"/>
<path d="M0 0 C0.33 0.66 0.66 1.32 1 2 C1.66 2 2.32 2 3 2 C2.6999825 5.50020422 2.04266259 6.94904191 -0.25 9.6875 C-2.83562327 11.86177411 -4.80636682 12.99628672 -8 14 C-8 13.34 -8 12.68 -8 12 C-8.66 11.67 -9.32 11.34 -10 11 C-9.0925 10.67 -8.185 10.34 -7.25 10 C-3.01932133 7.39650543 -1.81453912 4.49365277 0 0 Z " fill="#C99952" transform="translate(1009,294)"/>
<path d="M0 0 C0.33 0 0.66 0 1 0 C0.58955515 6.57791873 0.13391403 12.74051886 -2 19 C-2.33 19 -2.66 19 -3 19 C-3.0814222 16.77144426 -3.13938079 14.54202345 -3.1875 12.3125 C-3.22230469 11.07113281 -3.25710938 9.82976562 -3.29296875 8.55078125 C-2.9842473 4.80907731 -2.24853724 2.96217879 0 0 Z " fill="#C49042" transform="translate(541,238)"/>
<path d="M0 0 C0.66 0.33 1.32 0.66 2 1 C-2.62 5.62 -7.24 10.24 -12 15 C-12.66 14.67 -13.32 14.34 -14 14 C-12.42100123 12.22513306 -10.83707231 10.45512408 -9.25 8.6875 C-8.8065625 8.18798828 -8.363125 7.68847656 -7.90625 7.17382812 C-5.453615 4.45068191 -3.02719984 2.07235877 0 0 Z " fill="#4E5196" transform="translate(295,13)"/>
<path d="M0 0 C0 0.99 0 1.98 0 3 C-0.33 3.33 -0.66 3.66 -1 4 C0.77074917 4.02705729 2.54161711 4.04642195 4.3125 4.0625 C5.29863281 4.07410156 6.28476562 4.08570313 7.30078125 4.09765625 C10.09963849 4.12329862 10.09963849 4.12329862 13 3 C13 3.99 13 4.98 13 6 C7.06 6 1.12 6 -5 6 C-3.86695008 2.60085025 -2.87481525 1.94745549 0 0 Z " fill="#CC9F5C" transform="translate(738,162)"/>
<path d="M0 0 C0 0.99 0 1.98 0 3 C1.77074917 3.02705729 3.54161711 3.04642195 5.3125 3.0625 C6.29863281 3.07410156 7.28476562 3.08570313 8.30078125 3.09765625 C11.09963849 3.12329862 11.09963849 3.12329862 14 2 C14 2.99 14 3.98 14 5 C8.06 5 2.12 5 -4 5 C-3 2 -3 2 0 0 Z " fill="#CC9F5D" transform="translate(908,163)"/>
<path d="M0 0 C0.99 1.485 0.99 1.485 2 3 C0.1875 3.6875 0.1875 3.6875 -2 4 C-3 3 -4 2 -5 1 C-8.10839021 0.2730774 -8.10839021 0.2730774 -11 0 C-11 -0.33 -11 -0.66 -11 -1 C-6.6292047 -2.01646402 -3.97712063 -2.20951146 0 0 Z " fill="#D1A76A" transform="translate(831,182)"/>
<path d="M0 0 C0.66 0.33 1.32 0.66 2 1 C-0.97 3.97 -3.94 6.94 -7 10 C-7.33 9.34 -7.66 8.68 -8 8 C-3.375 2.25 -3.375 2.25 0 0 Z " fill="#CA9B55" transform="translate(870,179)"/>
<path d="M0 0 C0.66 0.33 1.32 0.66 2 1 C-0.97 3.97 -3.94 6.94 -7 10 C-7 6.04435836 -5.59478606 4.89133304 -3 2 C-2.01 1.34 -1.02 0.68 0 0 Z " fill="#CC9F5B" transform="translate(1250,179)"/>
<path d="M0 0 C0.66 0.33 1.32 0.66 2 1 C-0.97 3.97 -3.94 6.94 -7 10 C-7 6.04435836 -5.59478606 4.89133304 -3 2 C-2.01 1.34 -1.02 0.68 0 0 Z " fill="#C99A53" transform="translate(1141,179)"/>
<path d="M0 0 C2.31 0.66 4.62 1.32 7 2 C5.68 2.33 4.36 2.66 3 3 C3.33 3.99 3.66 4.98 4 6 C-0.875 4.25 -0.875 4.25 -2 2 C-1.34 2 -0.68 2 0 2 C0 1.34 0 0.68 0 0 Z " fill="#CC9F5C" transform="translate(816,302)"/>
<path d="M0 0 C1.65 1.65 3.3 3.3 5 5 C4.01 5.66 3.02 6.32 2 7 C0.4375 5.1875 0.4375 5.1875 -1 3 C-0.67 2.01 -0.34 1.02 0 0 Z " fill="#CDA15F" transform="translate(1251,299)"/>
<path d="M0 0 C0.33 0 0.66 0 1 0 C0.4140625 6.15234375 0.4140625 6.15234375 0 8 C-0.99 8.495 -0.99 8.495 -2 9 C-2.25 3.375 -2.25 3.375 0 0 Z " fill="#BE852E" transform="translate(541,233)"/>
</svg>
